<mxfile modified="2021-03-23T07:34:01.718Z" host="app.diagrams.net" agent="5.0 (Windows NT 10.0; Win64; x64) AppleWebKit/537.36 (KHTML, like Gecko) Chrome/89.0.4389.90 Safari/537.36" etag="1gGK0HBcebYg3-03aRIk" version="14.5.0" type="github">
  <diagram id="WI9T0HZ2pTsCkuznbFz-" name="Page-1">
    <mxGraphModel dx="1422" dy="794" grid="1" gridSize="10" guides="1" tooltips="1" connect="1" arrows="1" fold="1" page="1" pageScale="1" pageWidth="1169" pageHeight="827" math="0" shadow="0">
      <root>
        <mxCell id="0" />
        <mxCell id="1" parent="0" />
        <mxCell id="AcxdMaKK0mU5kZiv2lnr-49" style="edgeStyle=elbowEdgeStyle;rounded=0;orthogonalLoop=1;jettySize=auto;elbow=vertical;html=1;entryX=-0.032;entryY=0.493;entryDx=0;entryDy=0;entryPerimeter=0;exitX=1.016;exitY=0.498;exitDx=0;exitDy=0;exitPerimeter=0;strokeColor=#080808;" parent="1" edge="1">
          <mxGeometry relative="1" as="geometry">
            <mxPoint x="289.99999999999994" y="200.24999999999997" as="sourcePoint" />
            <mxPoint x="467.6480000000001" y="199.99999999999997" as="targetPoint" />
          </mxGeometry>
        </mxCell>
        <mxCell id="7SyEpNHibravQh2fk7pt-4" value="" style="aspect=fixed;pointerEvents=1;shadow=0;dashed=0;html=1;strokeColor=none;labelPosition=center;verticalLabelPosition=bottom;verticalAlign=top;align=center;fillColor=#00188D;shape=mxgraph.azure.user" parent="1" vertex="1">
          <mxGeometry x="220" y="190" width="47" height="50" as="geometry" />
        </mxCell>
        <mxCell id="7SyEpNHibravQh2fk7pt-5" value="" style="html=1;verticalLabelPosition=bottom;align=center;labelBackgroundColor=#ffffff;verticalAlign=top;strokeWidth=2;strokeColor=#0080F0;shadow=0;dashed=0;shape=mxgraph.ios7.icons.user;" parent="1" vertex="1">
          <mxGeometry x="220" y="414" width="51.5" height="50" as="geometry" />
        </mxCell>
        <mxCell id="7SyEpNHibravQh2fk7pt-6" value="" style="shape=image;verticalLabelPosition=bottom;labelBackgroundColor=#ffffff;verticalAlign=top;aspect=fixed;imageAspect=0;image=data:image/svg+xml,PHN2ZyB4bWxuczpjYz0iaHR0cDovL2NyZWF0aXZlY29tbW9ucy5vcmcvbnMjIiB4bWxuczpkYz0iaHR0cDovL3B1cmwub3JnL2RjL2VsZW1lbnRzLzEuMS8iIHhtbG5zOmlua3NjYXBlPSJodHRwOi8vd3d3Lmlua3NjYXBlLm9yZy9uYW1lc3BhY2VzL2lua3NjYXBlIiB4bWxuczpyZGY9Imh0dHA6Ly93d3cudzMub3JnLzE5OTkvMDIvMjItcmRmLXN5bnRheC1ucyMiIHhtbG5zOnNvZGlwb2RpPSJodHRwOi8vc29kaXBvZGkuc291cmNlZm9yZ2UubmV0L0RURC9zb2RpcG9kaS0wLmR0ZCIgeG1sbnM6c3ZnPSJodHRwOi8vd3d3LnczLm9yZy8yMDAwL3N2ZyIgeG1sbnM9Imh0dHA6Ly93d3cudzMub3JnLzIwMDAvc3ZnIiB4bWxuczp4bGluaz0iaHR0cDovL3d3dy53My5vcmcvMTk5OS94bGluayIgdmVyc2lvbj0iMS4xIiBpZD0ic3ZnMTE5ODAiIGlua3NjYXBlOnZlcnNpb249IjAuOTIuMyAoMjQwNTU0NiwgMjAxOC0wMy0xMSkiIHNvZGlwb2RpOmRvY25hbWU9ImxhcHRvcF82LnN2ZyIgeD0iMHB4IiB5PSIwcHgiIHZpZXdCb3g9IjAgMCA2Ni4xMSAzOC4yOCIgc3R5bGU9ImVuYWJsZS1iYWNrZ3JvdW5kOm5ldyAwIDAgNjYuMTEgMzguMjg7IiB4bWw6c3BhY2U9InByZXNlcnZlIj4mI3hhOzxzb2RpcG9kaTpuYW1lZHZpZXcgYm9yZGVyY29sb3I9IiM2NjY2NjYiIGJvcmRlcm9wYWNpdHk9IjEiIGZpdC1tYXJnaW4tYm90dG9tPSIwIiBmaXQtbWFyZ2luLWxlZnQ9IjAiIGZpdC1tYXJnaW4tcmlnaHQ9IjAiIGZpdC1tYXJnaW4tdG9wPSIwIiBncmlkdG9sZXJhbmNlPSIxMCIgZ3VpZGV0b2xlcmFuY2U9IjEwIiBpZD0ibmFtZWR2aWV3MTE5ODIiIGlua3NjYXBlOmN1cnJlbnQtbGF5ZXI9InN2ZzExOTgwIiBpbmtzY2FwZTpjeD0iNDQuMDc2MDQ3IiBpbmtzY2FwZTpjeT0iMjUuNTE4NjU2IiBpbmtzY2FwZTpwYWdlb3BhY2l0eT0iMCIgaW5rc2NhcGU6cGFnZXNoYWRvdz0iMiIgaW5rc2NhcGU6d2luZG93LWhlaWdodD0iMTAxNyIgaW5rc2NhcGU6d2luZG93LW1heGltaXplZD0iMSIgaW5rc2NhcGU6d2luZG93LXdpZHRoPSIxOTIwIiBpbmtzY2FwZTp3aW5kb3cteD0iLTgiIGlua3NjYXBlOndpbmRvdy15PSItOCIgaW5rc2NhcGU6em9vbT0iMTYuOTg1ODA0IiBvYmplY3R0b2xlcmFuY2U9IjEwIiBwYWdlY29sb3I9IiNmZmZmZmYiIHNob3dncmlkPSJmYWxzZSI+JiN4YTsJPC9zb2RpcG9kaTpuYW1lZHZpZXc+JiN4YTs8ZyBpZD0iZzExOTc4IiB0cmFuc2Zvcm09InRyYW5zbGF0ZSgwLC0wLjAwNDI4KSI+JiN4YTsJPHRpdGxlIGlkPSJ0aXRsZTExOTU4Ij5QYWdlLTE8L3RpdGxlPiYjeGE7CTxnIGlkPSJncm91cDM2NTEtMSI+JiN4YTsJCTx0aXRsZSBpZD0idGl0bGUxMTk2MCI+TGFwdG9wICM2PC90aXRsZT4mI3hhOwkJPGcgaWQ9InNoYXBlMzY1Mi0yIiB0cmFuc2Zvcm09InRyYW5zbGF0ZSg4LjAxNzgxLC0zLjAyNTcyKSI+JiN4YTsJCQk8dGl0bGUgaWQ9InRpdGxlMTE5NjIiPlNoZWV0LjM2NTI8L3RpdGxlPiYjeGE7CQkJPHBhdGggaWQ9InBhdGgxMTk2NCIgaW5rc2NhcGU6Y29ubmVjdG9yLWN1cnZhdHVyZT0iMCIgc3R5bGU9ImZpbGw6IzNGNTc2NTsiIGQ9Ik0wLDMuMDN2MzUuMjVoNTAuODdWMy4wM0gweiIvPiYjeGE7CQk8L2c+JiN4YTsJCTxnIGlkPSJzaGFwZTM2NTMtNCIgdHJhbnNmb3JtPSJ0cmFuc2xhdGUoOS44NTc5NiwtNC42MDQzNikiPiYjeGE7CQkJPHRpdGxlIGlkPSJ0aXRsZTExOTY3Ij5TaGVldC4zNjUzPC90aXRsZT4mI3hhOwkJCTxwYXRoIGlkPSJwYXRoMTE5NjkiIGlua3NjYXBlOmNvbm5lY3Rvci1jdXJ2YXR1cmU9IjAiIHN0eWxlPSJmaWxsOiNGRkZGRkY7IiBkPSJNMCw3LjM3djMwLjkxaDQ3LjU4VjcuMzdIMHoiLz4mI3hhOwkJPC9nPiYjeGE7CQk8ZyBpZD0ic2hhcGUzNjU0LTYiPiYjeGE7CQkJPHRpdGxlIGlkPSJ0aXRsZTExOTcyIj5TaGVldC4zNjU0PC90aXRsZT4mI3hhOwkJCTxwYXRoIGlkPSJwYXRoMTE5NzQiIGlua3NjYXBlOmNvbm5lY3Rvci1jdXJ2YXR1cmU9IjAiIHN0eWxlPSJmaWxsOiMzRjU3NjU7IiBkPSJNMCwzNS42NWMwLDAuMzgsMCwwLjM4LDAsMC4zOCAgICAgYzAsMS4xMywxLjEzLDIuMjUsMi42NSwyLjI1YzYwLjgzLDAsNjAuODMsMCw2MC44MywwYzEuNTEsMCwyLjYzLTEuMTIsMi42My0yLjI1YzAtMC4zOCwwLTAuMzgsMC0wLjM4SDB6Ii8+JiN4YTsJCTwvZz4mI3hhOwk8L2c+JiN4YTs8L2c+JiN4YTs8L3N2Zz4=;" parent="1" vertex="1">
          <mxGeometry x="490" y="180" width="138.95" height="80" as="geometry" />
        </mxCell>
        <mxCell id="7SyEpNHibravQh2fk7pt-7" style="edgeStyle=elbowEdgeStyle;rounded=0;orthogonalLoop=1;jettySize=auto;elbow=vertical;html=1;entryX=-0.032;entryY=0.493;entryDx=0;entryDy=0;entryPerimeter=0;exitX=1.016;exitY=0.498;exitDx=0;exitDy=0;exitPerimeter=0;strokeColor=#0A0A0A;" parent="1" edge="1">
          <mxGeometry relative="1" as="geometry">
            <mxPoint x="289.99999999999994" y="440.25" as="sourcePoint" />
            <mxPoint x="467.6480000000001" y="440" as="targetPoint" />
          </mxGeometry>
        </mxCell>
        <mxCell id="7SyEpNHibravQh2fk7pt-8" value="" style="shape=image;verticalLabelPosition=bottom;labelBackgroundColor=#ffffff;verticalAlign=top;aspect=fixed;imageAspect=0;image=data:image/svg+xml,PHN2ZyB4bWxuczpjYz0iaHR0cDovL2NyZWF0aXZlY29tbW9ucy5vcmcvbnMjIiB4bWxuczpkYz0iaHR0cDovL3B1cmwub3JnL2RjL2VsZW1lbnRzLzEuMS8iIHhtbG5zOmlua3NjYXBlPSJodHRwOi8vd3d3Lmlua3NjYXBlLm9yZy9uYW1lc3BhY2VzL2lua3NjYXBlIiB4bWxuczpyZGY9Imh0dHA6Ly93d3cudzMub3JnLzE5OTkvMDIvMjItcmRmLXN5bnRheC1ucyMiIHhtbG5zOnNvZGlwb2RpPSJodHRwOi8vc29kaXBvZGkuc291cmNlZm9yZ2UubmV0L0RURC9zb2RpcG9kaS0wLmR0ZCIgeG1sbnM6c3ZnPSJodHRwOi8vd3d3LnczLm9yZy8yMDAwL3N2ZyIgeG1sbnM9Imh0dHA6Ly93d3cudzMub3JnLzIwMDAvc3ZnIiB4bWxuczp4bGluaz0iaHR0cDovL3d3dy53My5vcmcvMTk5OS94bGluayIgdmVyc2lvbj0iMS4xIiBpZD0ic3ZnMTA5NDgiIGlua3NjYXBlOnZlcnNpb249IjAuOTIuMyAoMjQwNTU0NiwgMjAxOC0wMy0xMSkiIHNvZGlwb2RpOmRvY25hbWU9ImxhcHRvcC5zdmciIHg9IjBweCIgeT0iMHB4IiB2aWV3Qm94PSIwIDAgODEuNzUgNTYuMjYiIHN0eWxlPSJlbmFibGUtYmFja2dyb3VuZDpuZXcgMCAwIDgxLjc1IDU2LjI2OyIgeG1sOnNwYWNlPSJwcmVzZXJ2ZSI+JiN4YTs8c29kaXBvZGk6bmFtZWR2aWV3IGJvcmRlcmNvbG9yPSIjNjY2NjY2IiBib3JkZXJvcGFjaXR5PSIxIiBmaXQtbWFyZ2luLWJvdHRvbT0iMCIgZml0LW1hcmdpbi1sZWZ0PSIwIiBmaXQtbWFyZ2luLXJpZ2h0PSIwIiBmaXQtbWFyZ2luLXRvcD0iMCIgZ3JpZHRvbGVyYW5jZT0iMTAiIGd1aWRldG9sZXJhbmNlPSIxMCIgaWQ9Im5hbWVkdmlldzEwOTUwIiBpbmtzY2FwZTpjdXJyZW50LWxheWVyPSJzdmcxMDk0OCIgaW5rc2NhcGU6Y3g9IjU0LjUiIGlua3NjYXBlOmN5PSIzNy41MDcwMzkiIGlua3NjYXBlOnBhZ2VvcGFjaXR5PSIwIiBpbmtzY2FwZTpwYWdlc2hhZG93PSIyIiBpbmtzY2FwZTp3aW5kb3ctaGVpZ2h0PSIxMDE3IiBpbmtzY2FwZTp3aW5kb3ctbWF4aW1pemVkPSIxIiBpbmtzY2FwZTp3aW5kb3ctd2lkdGg9IjE5MjAiIGlua3NjYXBlOndpbmRvdy14PSItOCIgaW5rc2NhcGU6d2luZG93LXk9Ii04IiBpbmtzY2FwZTp6b29tPSIxMS4yNTgwNDYiIG9iamVjdHRvbGVyYW5jZT0iMTAiIHBhZ2Vjb2xvcj0iI2ZmZmZmZiIgc2hvd2dyaWQ9ImZhbHNlIj4mI3hhOwk8L3NvZGlwb2RpOm5hbWVkdmlldz4mI3hhOzxnIGlkPSJnMTA5NDYiIHRyYW5zZm9ybT0idHJhbnNsYXRlKC0wLjc1LC0wLjc1MTMyMSkiPiYjeGE7CTx0aXRsZSBpZD0idGl0bGUxMDkxNiI+UGFnZS0xPC90aXRsZT4mI3hhOwk8ZyBpZD0iZ3JvdXAzNjE4LTEiIHRyYW5zZm9ybT0idHJhbnNsYXRlKDAuNzUsLTAuNzU4Njc5KSI+JiN4YTsJCTx0aXRsZSBpZD0idGl0bGUxMDkxOCI+TGFwdG9wPC90aXRsZT4mI3hhOwkJPGcgaWQ9InNoYXBlMzYxOS0yIiB0cmFuc2Zvcm09InRyYW5zbGF0ZSg2Ljc1LC00LjUpIj4mI3hhOwkJCTx0aXRsZSBpZD0idGl0bGUxMDkyMCI+cmVjdDE0OTc8L3RpdGxlPiYjeGE7CQkJJiN4YTsJCQkJPHBhdGggaWQ9InBhdGgxMDkyMiIgaW5rc2NhcGU6Y29ubmVjdG9yLWN1cnZhdHVyZT0iMCIgc3R5bGU9ImZpbGw6I0ZDRkNGQztzdHJva2U6IzU1NkE4QTtzdHJva2Utd2lkdGg6MS41O3N0cm9rZS1taXRlcmxpbWl0OjM7IiBkPSIgICAgIE0wLDU0Ljc2YzAsMS42NiwxLjM0LDMsMywzaDYzYzEuNjYsMCwzLTEuMzQsMy0zdi00NWMwLTEuNjYtMS4zNC0zLTMtM0gzYy0xLjY2LDAtMywxLjM0LTMsM1Y1NC43NnoiLz4mI3hhOwkJPC9nPiYjeGE7CQk8ZyBpZD0ic2hhcGUzNjIwLTQiPiYjeGE7CQkJPHRpdGxlIGlkPSJ0aXRsZTEwOTI1Ij5wYXRoMTQ5OTwvdGl0bGU+JiN4YTsJCQk8cGF0aCBpZD0icGF0aDEwOTI3IiBpbmtzY2FwZTpjb25uZWN0b3ItY3VydmF0dXJlPSIwIiBzdHlsZT0iZmlsbDojNDE0MDQyOyIgZD0iTTc4Ljc1LDU3Ljc2SDMuMTMgICAgIEMxLjY4LDU3Ljg3LDAuMzYsNTYuOTIsMCw1NS41MWg4MS43NUM4MS43NSw1NS41MSw4MC44NCw1Ny43Niw3OC43NSw1Ny43NnoiLz4mI3hhOwkJPC9nPiYjeGE7CQk8ZyBpZD0ic2hhcGUzNjIxLTYiIHRyYW5zZm9ybT0idHJhbnNsYXRlKDAuMDc1LC0yLjI1KSI+JiN4YTsJCQk8dGl0bGUgaWQ9InRpdGxlMTA5MzAiPnBvbHlnb24xNTAxPC90aXRsZT4mI3hhOwkJCTxwYXRoIGlkPSJwYXRoMTA5MzIiIGlua3NjYXBlOmNvbm5lY3Rvci1jdXJ2YXR1cmU9IjAiIHN0eWxlPSJmaWxsOiM1NTZBOEE7IiBkPSJNNzYuNDIsNTQuMDFsNS4yNSwzLjc1SDBsNS45NC0zLjc1SDc2LjQyeiIvPiYjeGE7CQk8L2c+JiN4YTsJCTxnIGlkPSJzaGFwZTM2MjItOCIgdHJhbnNmb3JtPSJ0cmFuc2xhdGUoMywtMi4yNSkiPiYjeGE7CQkJPHRpdGxlIGlkPSJ0aXRsZTEwOTM1Ij5wb2x5Z29uMTUwMzwvdGl0bGU+JiN4YTsJCQk8cGF0aCBpZD0icGF0aDEwOTM3IiBpbmtzY2FwZTpjb25uZWN0b3ItY3VydmF0dXJlPSIwIiBzdHlsZT0iZmlsbDojRTRFREYxOyIgZD0iTTczLjAyLDU1LjUxbDIuNzMsMi4yNUgwbDMuNDUtMi4yNUg3My4wMnoiLz4mI3hhOwkJPC9nPiYjeGE7CQk8ZyBpZD0ic2hhcGUzNjIzLTEwIiB0cmFuc2Zvcm09InRyYW5zbGF0ZSgxMS4yNSwtMTAuNSkiPiYjeGE7CQkJPHRpdGxlIGlkPSJ0aXRsZTEwOTQwIj5yZWN0MTUwNTwvdGl0bGU+JiN4YTsJCQk8cmVjdCBpZD0icmVjdDEwOTQyIiB5PSIxOC4wMSIgc3R5bGU9ImZpbGw6IzJCQzdGNDsiIHdpZHRoPSI2MCIgaGVpZ2h0PSIzOS43NSIvPiYjeGE7CQk8L2c+JiN4YTsJPC9nPiYjeGE7PC9nPiYjeGE7PC9zdmc+;" parent="1" vertex="1">
          <mxGeometry x="490" y="380" width="146.42" height="100" as="geometry" />
        </mxCell>
        <mxCell id="7SyEpNHibravQh2fk7pt-9" value="" style="shape=image;verticalLabelPosition=bottom;labelBackgroundColor=#ffffff;verticalAlign=top;aspect=fixed;imageAspect=0;image=data:image/svg+xml,PHN2ZyB4bWxuczpjYz0iaHR0cDovL2NyZWF0aXZlY29tbW9ucy5vcmcvbnMjIiB4bWxuczpkYz0iaHR0cDovL3B1cmwub3JnL2RjL2VsZW1lbnRzLzEuMS8iIHhtbG5zOmlua3NjYXBlPSJodHRwOi8vd3d3Lmlua3NjYXBlLm9yZy9uYW1lc3BhY2VzL2lua3NjYXBlIiB4bWxuczpyZGY9Imh0dHA6Ly93d3cudzMub3JnLzE5OTkvMDIvMjItcmRmLXN5bnRheC1ucyMiIHhtbG5zOnNvZGlwb2RpPSJodHRwOi8vc29kaXBvZGkuc291cmNlZm9yZ2UubmV0L0RURC9zb2RpcG9kaS0wLmR0ZCIgeG1sbnM6c3ZnPSJodHRwOi8vd3d3LnczLm9yZy8yMDAwL3N2ZyIgeG1sbnM9Imh0dHA6Ly93d3cudzMub3JnLzIwMDAvc3ZnIiB4bWxuczp4bGluaz0iaHR0cDovL3d3dy53My5vcmcvMTk5OS94bGluayIgdmVyc2lvbj0iMS4xIiBpZD0ic3ZnNTYzODQiIGlua3NjYXBlOnZlcnNpb249IjAuOTIuMyAoMjQwNTU0NiwgMjAxOC0wMy0xMSkiIHNvZGlwb2RpOmRvY25hbWU9InppcC5zdmciIHg9IjBweCIgeT0iMHB4IiB2aWV3Qm94PSIwIDAgMjYuODUgMzUuMzIiIHN0eWxlPSJlbmFibGUtYmFja2dyb3VuZDpuZXcgMCAwIDI2Ljg1IDM1LjMyOyIgeG1sOnNwYWNlPSJwcmVzZXJ2ZSI+JiN4YTs8c29kaXBvZGk6bmFtZWR2aWV3IGJvcmRlcmNvbG9yPSIjNjY2NjY2IiBib3JkZXJvcGFjaXR5PSIxIiBmaXQtbWFyZ2luLWJvdHRvbT0iMCIgZml0LW1hcmdpbi1sZWZ0PSIwIiBmaXQtbWFyZ2luLXJpZ2h0PSIwIiBmaXQtbWFyZ2luLXRvcD0iMCIgZ3JpZHRvbGVyYW5jZT0iMTAiIGd1aWRldG9sZXJhbmNlPSIxMCIgaWQ9Im5hbWVkdmlldzU2Mzg2IiBpbmtzY2FwZTpjdXJyZW50LWxheWVyPSJzdmc1NjM4NCIgaW5rc2NhcGU6Y3g9IjE3Ljg5Nzg4NCIgaW5rc2NhcGU6Y3k9IjIzLjU0OTc1NiIgaW5rc2NhcGU6cGFnZW9wYWNpdHk9IjAiIGlua3NjYXBlOnBhZ2VzaGFkb3c9IjIiIGlua3NjYXBlOndpbmRvdy1oZWlnaHQ9IjEwMTciIGlua3NjYXBlOndpbmRvdy1tYXhpbWl6ZWQ9IjEiIGlua3NjYXBlOndpbmRvdy13aWR0aD0iMTkyMCIgaW5rc2NhcGU6d2luZG93LXg9Ii04IiBpbmtzY2FwZTp3aW5kb3cteT0iLTgiIGlua3NjYXBlOnpvb209IjExLjM3MjMzNiIgb2JqZWN0dG9sZXJhbmNlPSIxMCIgcGFnZWNvbG9yPSIjZmZmZmZmIiBzaG93Z3JpZD0iZmFsc2UiPiYjeGE7CTwvc29kaXBvZGk6bmFtZWR2aWV3PiYjeGE7PGcgaWQ9Imc1NjM4MiIgdHJhbnNmb3JtPSJ0cmFuc2xhdGUoLTEwLjkyODYsLTEwLjkzMTQpIj4mI3hhOwk8dGl0bGUgaWQ9InRpdGxlNTYzMjgiPlBhZ2UtMTwvdGl0bGU+JiN4YTsJPGcgaWQ9Imdyb3VwNDM3MC0xIiB0cmFuc2Zvcm09InRyYW5zbGF0ZSgxMC45Mjg2LC0xMC45Mjg2KSI+JiN4YTsJCTx0aXRsZSBpZD0idGl0bGU1NjMzMCI+WklQPC90aXRsZT4mI3hhOwkJPGcgaWQ9Imdyb3VwNDM3MS0yIj4mI3hhOwkJCTx0aXRsZSBpZD0idGl0bGU1NjMzMiI+U2hlZXQuNDM3MTwvdGl0bGU+JiN4YTsJCQk8ZyBpZD0ic2hhcGU0MzcyLTMiPiYjeGE7CQkJCTx0aXRsZSBpZD0idGl0bGU1NjMzNCI+U2hlZXQuNDM3MjwvdGl0bGU+JiN4YTsJCQkJPHBhdGggaWQ9InBhdGg1NjMzNiIgaW5rc2NhcGU6Y29ubmVjdG9yLWN1cnZhdHVyZT0iMCIgc3R5bGU9ImZpbGw6I0U5RTlFMDsiIGQ9Ik0xOS4wMywyMS44NkgwLjkxYy0wLjUsMC0wLjkxLDAuNDEtMC45MSwxLjIxICAgICAgdjMzLjQ4YzAsMC4yMiwwLjQxLDAuNjMsMC45MSwwLjYzaDI1LjAyYzAuNTEsMCwwLjkyLTAuNDEsMC45Mi0wLjYzVjMwLjA0YzAtMC40NC0wLjA2LTAuNTgtMC4xNi0wLjY4bC03LjI3LTcuMzQgICAgICBDMTkuMzIsMjEuOTIsMTkuMTgsMjEuODYsMTkuMDMsMjEuODZ6Ii8+JiN4YTsJCQk8L2c+JiN4YTsJCQk8ZyBpZD0ic2hhcGU0MzczLTUiIHRyYW5zZm9ybT0idHJhbnNsYXRlKDE5LjM1NDcsLTI3Ljc1MjMpIj4mI3hhOwkJCQk8dGl0bGUgaWQ9InRpdGxlNTYzMzkiPlNoZWV0LjQzNzM8L3RpdGxlPiYjeGE7CQkJCTxwYXRoIGlkPSJwYXRoNTYzNDEiIGlua3NjYXBlOmNvbm5lY3Rvci1jdXJ2YXR1cmU9IjAiIHN0eWxlPSJmaWxsOiNEOUQ3Q0E7IiBkPSJNMCw0OS43djcuNDhoNy40TDAsNDkuN3oiLz4mI3hhOwkJCTwvZz4mI3hhOwkJCTxnIGlkPSJzaGFwZTQzNzQtNyI+JiN4YTsJCQkJPHRpdGxlIGlkPSJ0aXRsZTU2MzQ0Ij5TaGVldC40Mzc0PC90aXRsZT4mI3hhOwkJCQk8cGF0aCBpZD0icGF0aDU2MzQ2IiBpbmtzY2FwZTpjb25uZWN0b3ItY3VydmF0dXJlPSIwIiBzdHlsZT0iZmlsbDojNTU2MDgwOyIgZD0iTTI1LjkzLDU3LjE4SDAuOTFjLTAuNSwwLTAuOTEtMC40MS0wLjkxLTAuOTIgICAgICB2LTkuOGgyNi44NXY5LjhDMjYuODUsNTYuNzcsMjYuNDQsNTcuMTgsMjUuOTMsNTcuMTh6Ii8+JiN4YTsJCQk8L2c+JiN4YTsJCQk8ZyBpZD0iZ3JvdXA0Mzc1LTkiIHRyYW5zZm9ybT0idHJhbnNsYXRlKDcuNTMzOTksLTEuODkyMikiPiYjeGE7CQkJCTx0aXRsZSBpZD0idGl0bGU1NjM0OSI+U2hlZXQuNDM3NTwvdGl0bGU+JiN4YTsJCQkJPGcgaWQ9InNoYXBlNDM3Ni0xMCI+JiN4YTsJCQkJCTx0aXRsZSBpZD0idGl0bGU1NjM1MSI+U2hlZXQuNDM3NjwvdGl0bGU+JiN4YTsJCQkJCTxwYXRoIGlkPSJwYXRoNTYzNTMiIGlua3NjYXBlOmNvbm5lY3Rvci1jdXJ2YXR1cmU9IjAiIHN0eWxlPSJmaWxsOiNGRkZGRkY7IiBkPSJNNC4xOCw1MC44MnYwLjg0TDEuMTksNTYuMmwtMC4xNywwLjE0aDMuMTYgICAgICAgdjAuODRIMHYtMC44NGwzLTQuNTRsMC4xOC0wLjE0SDB2LTAuODRINC4xOHoiLz4mI3hhOwkJCQk8L2c+JiN4YTsJCQkJPGcgaWQ9InNoYXBlNDM3Ny0xMiIgdHJhbnNmb3JtPSJ0cmFuc2xhdGUoNS42NDE1OSkiPiYjeGE7CQkJCQk8dGl0bGUgaWQ9InRpdGxlNTYzNTYiPlNoZWV0LjQzNzc8L3RpdGxlPiYjeGE7CQkJCQk8cGF0aCBpZD0icGF0aDU2MzU4IiBpbmtzY2FwZTpjb25uZWN0b3ItY3VydmF0dXJlPSIwIiBzdHlsZT0iZmlsbDojRkZGRkZGOyIgZD0iTTEuMDQsNTcuMThIMHYtNi4zNmgxLjA0VjU3LjE4eiIvPiYjeGE7CQkJCTwvZz4mI3hhOwkJCQk8ZyBpZD0ic2hhcGU0Mzc4LTE0IiB0cmFuc2Zvcm09InRyYW5zbGF0ZSg4LjI0NTEyKSI+JiN4YTsJCQkJCTx0aXRsZSBpZD0idGl0bGU1NjM2MSI+U2hlZXQuNDM3ODwvdGl0bGU+JiN4YTsJCQkJCTxwYXRoIGlkPSJwYXRoNTYzNjMiIGlua3NjYXBlOmNvbm5lY3Rvci1jdXJ2YXR1cmU9IjAiIHN0eWxlPSJmaWxsOiNGRkZGRkY7IiBkPSJNMS4wMiw1Ny4xOEgwdi02LjM2aDEuODEgICAgICAgYzAuMjcsMCwwLjUzLDAuMDUsMC43OSwwLjEzYzAuMjYsMC4wOSwwLjUsMC4yMiwwLjcxLDAuMzlzMC4zNywwLjM4LDAuNSwwLjYzQzMuOTQsNTIuMjEsNCw1Mi40OCw0LDUyLjc5ICAgICAgIGMwLDAuMzItMC4wNSwwLjYxLTAuMTYsMC44N2MtMC4xMSwwLjI3LTAuMjYsMC40OS0wLjQ1LDAuNjZjLTAuMiwwLjE4LTAuNDMsMC4zMi0wLjcsMC40MnMtMC41OCwwLjE0LTAuOTEsMC4xNEgxLjAyVjU3LjE4eiAgICAgICAgTTEuMDIsNTEuNjF2Mi41MmgwLjk0YzAuMTMsMCwwLjI1LTAuMDMsMC4zOC0wLjA3YzAuMTItMC4wNCwwLjIzLTAuMTEsMC4zMy0wLjIxczAuMTktMC4yMywwLjI1LTAuNDEgICAgICAgYzAuMDYtMC4xOCwwLjA5LTAuMzksMC4wOS0wLjY1YzAtMC4xLTAuMDEtMC4yMi0wLjA0LTAuMzZjLTAuMDMtMC4xMy0wLjA5LTAuMjYtMC4xNy0wLjM5Yy0wLjA5LTAuMTItMC4yMi0wLjIyLTAuMzgtMC4zMSAgICAgICBjLTAuMTUtMC4wOC0wLjM3LTAuMTItMC42My0wLjEySDEuMDJ6Ii8+JiN4YTsJCQkJPC9nPiYjeGE7CQkJPC9nPiYjeGE7CQkJPGcgaWQ9Imdyb3VwNDM3OS0xNiIgdHJhbnNmb3JtPSJ0cmFuc2xhdGUoOS45ODk1NCwtMTMuODc2MSkiPiYjeGE7CQkJCTx0aXRsZSBpZD0idGl0bGU1NjM2NyI+U2hlZXQuNDM3OTwvdGl0bGU+JiN4YTsJCQkJPGcgaWQ9InNoYXBlNDM4MC0xNyI+JiN4YTsJCQkJCTx0aXRsZSBpZD0idGl0bGU1NjM2OSI+U2hlZXQuNDM4MDwvdGl0bGU+JiN4YTsJCQkJCTxwYXRoIGlkPSJwYXRoNTYzNzEiIGlua3NjYXBlOmNvbm5lY3Rvci1jdXJ2YXR1cmU9IjAiIHN0eWxlPSJmaWxsOiNDOEJEQjg7IiBkPSJNMy43NSw1MC44N3YtMS4yNmgxLjI0di0xLjI2SDMuNzV2LTEuMjZoMS4yNCAgICAgICB2LTEuMjZIMy43NXYtMS4yN2gxLjI0VjQzLjNIMy43NXYtMS4yNmgxLjI0di0xLjI2SDMuNzV2LTEuMjZIMi41djEuMjZIMS4yNXYxLjI2SDIuNXYxLjI2SDEuMjV2MS4yNkgyLjV2MS4yN0gxLjI1djEuMjZIMi41ICAgICAgIHYxLjI2SDEuMjV2MS4yNkgyLjV2MS4yNkgwdjMuMTVjMCwxLjc0LDEuNCwzLjE2LDMuMTIsMy4xNnMzLjEyLTEuNDIsMy4xMi0zLjE2di0zLjE1TDMuNzUsNTAuODd6IE00Ljk5LDU0LjAyICAgICAgIGMwLDEuMDUtMC44NCwxLjktMS44NywxLjlzLTEuODctMC44NS0xLjg3LTEuOXYtMS44OWgzLjc0VjU0LjAyeiIvPiYjeGE7CQkJCTwvZz4mI3hhOwkJCQk8ZyBpZD0ic2hhcGU0MzgxLTE5IiB0cmFuc2Zvcm09InRyYW5zbGF0ZSgxLjg3MzA0LC0yLjUyMjkzKSI+JiN4YTsJCQkJCTx0aXRsZSBpZD0idGl0bGU1NjM3NCI+U2hlZXQuNDM4MTwvdGl0bGU+JiN4YTsJCQkJCTxwYXRoIGlkPSJwYXRoNTYzNzYiIGlua3NjYXBlOmNvbm5lY3Rvci1jdXJ2YXR1cmU9IjAiIHN0eWxlPSJmaWxsOiNDOEJEQjg7IiBkPSJNMC42Miw1Ny4xOGgxLjI1YzAuMzUsMCwwLjYzLTAuMjgsMC42My0wLjYzICAgICAgIGMwLTAuMzUtMC4yOC0wLjYzLTAuNjMtMC42M0gwLjYyQzAuMjgsNTUuOTIsMCw1Ni4yLDAsNTYuNTVTMC4yOCw1Ny4xOCwwLjYyLDU3LjE4eiIvPiYjeGE7CQkJCTwvZz4mI3hhOwkJCTwvZz4mI3hhOwkJPC9nPiYjeGE7CTwvZz4mI3hhOzwvZz4mI3hhOzwvc3ZnPg==;" parent="1" vertex="1">
          <mxGeometry x="360" y="260" width="27" height="35" as="geometry" />
        </mxCell>
        <mxCell id="7SyEpNHibravQh2fk7pt-10" value="" style="shape=image;verticalLabelPosition=bottom;labelBackgroundColor=#ffffff;verticalAlign=top;aspect=fixed;imageAspect=0;image=data:image/svg+xml,PHN2ZyB4bWxuczpjYz0iaHR0cDovL2NyZWF0aXZlY29tbW9ucy5vcmcvbnMjIiB4bWxuczpkYz0iaHR0cDovL3B1cmwub3JnL2RjL2VsZW1lbnRzLzEuMS8iIHhtbG5zOmlua3NjYXBlPSJodHRwOi8vd3d3Lmlua3NjYXBlLm9yZy9uYW1lc3BhY2VzL2lua3NjYXBlIiB4bWxuczpyZGY9Imh0dHA6Ly93d3cudzMub3JnLzE5OTkvMDIvMjItcmRmLXN5bnRheC1ucyMiIHhtbG5zOnNvZGlwb2RpPSJodHRwOi8vc29kaXBvZGkuc291cmNlZm9yZ2UubmV0L0RURC9zb2RpcG9kaS0wLmR0ZCIgeG1sbnM6c3ZnPSJodHRwOi8vd3d3LnczLm9yZy8yMDAwL3N2ZyIgeG1sbnM9Imh0dHA6Ly93d3cudzMub3JnLzIwMDAvc3ZnIiB4bWxuczp4bGluaz0iaHR0cDovL3d3dy53My5vcmcvMTk5OS94bGluayIgdmVyc2lvbj0iMS4xIiBpZD0ic3ZnNDg3MTQiIGlua3NjYXBlOnZlcnNpb249IjAuOTIuMyAoMjQwNTU0NiwgMjAxOC0wMy0xMSkiIHNvZGlwb2RpOmRvY25hbWU9ImpwZy5zdmciIHg9IjBweCIgeT0iMHB4IiB2aWV3Qm94PSIwIDAgMjYuNzIgMzUuMTUiIHN0eWxlPSJlbmFibGUtYmFja2dyb3VuZDpuZXcgMCAwIDI2LjcyIDM1LjE1OyIgeG1sOnNwYWNlPSJwcmVzZXJ2ZSI+JiN4YTs8c29kaXBvZGk6bmFtZWR2aWV3IGJvcmRlcmNvbG9yPSIjNjY2NjY2IiBib3JkZXJvcGFjaXR5PSIxIiBmaXQtbWFyZ2luLWJvdHRvbT0iMCIgZml0LW1hcmdpbi1sZWZ0PSIwIiBmaXQtbWFyZ2luLXJpZ2h0PSIwIiBmaXQtbWFyZ2luLXRvcD0iMCIgZ3JpZHRvbGVyYW5jZT0iMTAiIGd1aWRldG9sZXJhbmNlPSIxMCIgaWQ9Im5hbWVkdmlldzQ4NzE2IiBpbmtzY2FwZTpjdXJyZW50LWxheWVyPSJzdmc0ODcxNCIgaW5rc2NhcGU6Y3g9IjE3LjgxMjE1NiIgaW5rc2NhcGU6Y3k9IjIzLjQzNTg5NiIgaW5rc2NhcGU6cGFnZW9wYWNpdHk9IjAiIGlua3NjYXBlOnBhZ2VzaGFkb3c9IjIiIGlua3NjYXBlOndpbmRvdy1oZWlnaHQ9IjEwMTciIGlua3NjYXBlOndpbmRvdy1tYXhpbWl6ZWQ9IjEiIGlua3NjYXBlOndpbmRvdy13aWR0aD0iMTkyMCIgaW5rc2NhcGU6d2luZG93LXg9Ii04IiBpbmtzY2FwZTp3aW5kb3cteT0iLTgiIGlua3NjYXBlOnpvb209IjExLjQwNjA4OSIgb2JqZWN0dG9sZXJhbmNlPSIxMCIgcGFnZWNvbG9yPSIjZmZmZmZmIiBzaG93Z3JpZD0iZmFsc2UiPiYjeGE7CTwvc29kaXBvZGk6bmFtZWR2aWV3PiYjeGE7PGcgaWQ9Imc0ODcxMiIgdHJhbnNmb3JtPSJ0cmFuc2xhdGUoLTEwLjkyODYsLTEwLjkzMTQpIj4mI3hhOwk8dGl0bGUgaWQ9InRpdGxlNDg2NjEiPlBhZ2UtMTwvdGl0bGU+JiN4YTsJPGcgaWQ9Imdyb3VwNDMyNy0xIiB0cmFuc2Zvcm09InRyYW5zbGF0ZSgxMC45Mjg2LC0xMC45Mjg2KSI+JiN4YTsJCTx0aXRsZSBpZD0idGl0bGU0ODY2MyI+SlBHPC90aXRsZT4mI3hhOwkJPGcgaWQ9Imdyb3VwNDMyOC0yIj4mI3hhOwkJCTx0aXRsZSBpZD0idGl0bGU0ODY2NSI+U2hlZXQuNDMyODwvdGl0bGU+JiN4YTsJCQk8ZyBpZD0ic2hhcGU0MzI5LTMiPiYjeGE7CQkJCTx0aXRsZSBpZD0idGl0bGU0ODY2NyI+U2hlZXQuNDMyOTwvdGl0bGU+JiN4YTsJCQkJPHBhdGggaWQ9InBhdGg0ODY2OSIgaW5rc2NhcGU6Y29ubmVjdG9yLWN1cnZhdHVyZT0iMCIgc3R5bGU9ImZpbGw6I0U5RTlFMDsiIGQ9Ik0xOC45NCwyMS44NkgwLjkxYy0wLjUsMC0wLjkxLDAuNDEtMC45MSwxLjIxICAgICAgdjMzLjMxYzAsMC4yMiwwLjQxLDAuNjMsMC45MSwwLjYzaDI0LjljMC41LDAsMC45MS0wLjQxLDAuOTEtMC42M1YzMGMwLTAuNDMtMC4wNi0wLjU3LTAuMTYtMC42OGwtNy4yMy03LjMgICAgICBDMTkuMjMsMjEuOTIsMTkuMDksMjEuODYsMTguOTQsMjEuODZ6Ii8+JiN4YTsJCQk8L2c+JiN4YTsJCQk8ZyBpZD0ic2hhcGU0MzMwLTUiIHRyYW5zZm9ybT0idHJhbnNsYXRlKDE5LjI2MiwtMjcuNjE5MykiPiYjeGE7CQkJCTx0aXRsZSBpZD0idGl0bGU0ODY3MiI+U2hlZXQuNDMzMDwvdGl0bGU+JiN4YTsJCQkJPHBhdGggaWQ9InBhdGg0ODY3NCIgaW5rc2NhcGU6Y29ubmVjdG9yLWN1cnZhdHVyZT0iMCIgc3R5bGU9ImZpbGw6I0Q5RDdDQTsiIGQ9Ik0wLDQ5LjU3djcuNDRoNy4zNkwwLDQ5LjU3eiIvPiYjeGE7CQkJPC9nPiYjeGE7CQkJPGcgaWQ9InNoYXBlNDMzMS03IiB0cmFuc2Zvcm09InRyYW5zbGF0ZSg0Ljg4NTEsLTIzLjIyNTMpIj4mI3hhOwkJCQk8dGl0bGUgaWQ9InRpdGxlNDg2NzciPlNoZWV0LjQzMzE8L3RpdGxlPiYjeGE7CQkJCTxlbGxpcHNlIGlkPSJlbGxpcHNlNDg2NzkiIHN0eWxlPSJmaWxsOiNGM0Q1NUI7IiBjeD0iMi44NCIgY3k9IjU0LjE0IiByeD0iMi44NCIgcnk9IjIuODciLz4mI3hhOwkJCTwvZz4mI3hhOwkJCTxnIGlkPSJzaGFwZTQzMzItOSIgdHJhbnNmb3JtPSJ0cmFuc2xhdGUoMCwtMTAuNjcxMSkiPiYjeGE7CQkJCTx0aXRsZSBpZD0idGl0bGU0ODY4MiI+U2hlZXQuNDMzMjwvdGl0bGU+JiN4YTsJCQkJPHBhdGggaWQ9InBhdGg0ODY4NCIgaW5rc2NhcGU6Y29ubmVjdG9yLWN1cnZhdHVyZT0iMCIgc3R5bGU9ImZpbGw6IzI2Qjk5QTsiIGQ9Ik0wLDU3LjAxaDYuODNoMTkuODlWNTAuMWwtNi4yMi01Ljk2ICAgICAgbC02LjUyLDcuMjJsLTMuNDEtMy40NEwwLDU3LjAxeiIvPiYjeGE7CQkJPC9nPiYjeGE7CQkJPGcgaWQ9InNoYXBlNDMzMy0xMSI+JiN4YTsJCQkJPHRpdGxlIGlkPSJ0aXRsZTQ4Njg3Ij5TaGVldC40MzMzPC90aXRsZT4mI3hhOwkJCQk8cGF0aCBpZD0icGF0aDQ4Njg5IiBpbmtzY2FwZTpjb25uZWN0b3ItY3VydmF0dXJlPSIwIiBzdHlsZT0iZmlsbDojMTRBMDg1OyIgZD0iTTI1LjgxLDU3LjAxSDAuOTFDMC40MSw1Ny4wMSwwLDU2LjYsMCw1Ni4wOSAgICAgIHYtOS43NWgyNi43MnY5Ljc1QzI2LjcyLDU2LjYsMjYuMzEsNTcuMDEsMjUuODEsNTcuMDF6Ii8+JiN4YTsJCQk8L2c+JiN4YTsJCQk8ZyBpZD0iZ3JvdXA0MzM0LTEzIiB0cmFuc2Zvcm09InRyYW5zbGF0ZSg1LjQ0MzA4LC0xLjg4MzE0KSI+JiN4YTsJCQkJPHRpdGxlIGlkPSJ0aXRsZTQ4NjkyIj5TaGVldC40MzM0PC90aXRsZT4mI3hhOwkJCQk8ZyBpZD0ic2hhcGU0MzM1LTE0Ij4mI3hhOwkJCQkJPHRpdGxlIGlkPSJ0aXRsZTQ4Njk0Ij5TaGVldC40MzM1PC90aXRsZT4mI3hhOwkJCQkJPHBhdGggaWQ9InBhdGg0ODY5NiIgaW5rc2NhcGU6Y29ubmVjdG9yLWN1cnZhdHVyZT0iMCIgc3R5bGU9ImZpbGw6I0ZGRkZGRjsiIGQ9Ik0zLjgzLDUwLjUxdjQuOTNjMCwwLjMtMC4wNSwwLjU1LTAuMTYsMC43NSAgICAgICBjLTAuMTEsMC4yLTAuMjUsMC4zNy0wLjQzLDAuNDljLTAuMTgsMC4xMi0wLjM5LDAuMjEtMC42MywwLjI2Yy0wLjIzLDAuMDQtMC40OCwwLjA3LTAuNzIsMC4wN2MtMC4xMywwLTAuMjgtMC4wMS0wLjQ0LTAuMDQgICAgICAgYy0wLjE3LTAuMDMtMC4zNC0wLjA3LTAuNTItMC4xMmMtMC4xOC0wLjA1LTAuMzUtMC4xMi0wLjUxLTAuMThDMC4yNSw1Ni42LDAuMTEsNTYuNTIsMCw1Ni40M2wwLjQzLTAuNjkgICAgICAgYzAuMDYsMC4wNCwwLjE0LDAuMDgsMC4yNSwwLjEyYzAuMSwwLjA1LDAuMjEsMC4wOSwwLjM0LDAuMTJjMC4xMiwwLjA0LDAuMjUsMC4wNywwLjM5LDAuMXMwLjI2LDAuMDQsMC4zOCwwLjA0ICAgICAgIGMwLjMsMCwwLjU0LTAuMDUsMC43Mi0wLjE3czAuMjctMC4zMiwwLjI4LTAuNnYtNC44NEwzLjgzLDUwLjUxeiIvPiYjeGE7CQkJCTwvZz4mI3hhOwkJCQk8ZyBpZD0ic2hhcGU0MzM2LTE2IiB0cmFuc2Zvcm09InRyYW5zbGF0ZSg1LjM1MTc0LC0wLjA0MjY4NDQpIj4mI3hhOwkJCQkJPHRpdGxlIGlkPSJ0aXRsZTQ4Njk5Ij5TaGVldC40MzM2PC90aXRsZT4mI3hhOwkJCQkJPHBhdGggaWQ9InBhdGg0ODcwMSIgaW5rc2NhcGU6Y29ubmVjdG9yLWN1cnZhdHVyZT0iMCIgc3R5bGU9ImZpbGw6I0ZGRkZGRjsiIGQ9Ik0xLjAyLDU3LjAxSDB2LTYuMzNoMS44ICAgICAgIGMwLjI3LDAsMC41MywwLjA1LDAuNzksMC4xM2MwLjI2LDAuMDksMC40OSwwLjIyLDAuNywwLjM5czAuMzgsMC4zOCwwLjUsMC42MmMwLjEzLDAuMjQsMC4xOSwwLjUyLDAuMTksMC44MiAgICAgICBjMCwwLjMyLTAuMDUsMC42MS0wLjE2LDAuODdjLTAuMSwwLjI2LTAuMjYsMC40OC0wLjQ1LDAuNjZzLTAuNDIsMC4zMS0wLjY5LDAuNDFjLTAuMjgsMC4xLTAuNTgsMC4xNS0wLjksMC4xNUgxLjAyVjU3LjAxeiAgICAgICAgTTEuMDIsNTEuNDd2Mi41aDAuOTNjMC4xMywwLDAuMjUtMC4wMiwwLjM3LTAuMDZjMC4xMy0wLjA1LDAuMjQtMC4xMiwwLjM0LTAuMjFjMC4xLTAuMSwwLjE4LTAuMjQsMC4yNS0wLjQxICAgICAgIEMyLjk3LDUzLjExLDMsNTIuOSwzLDUyLjY0YzAtMC4xLTAuMDItMC4yMi0wLjA0LTAuMzZjLTAuMDMtMC4xMy0wLjA5LTAuMjYtMC4xOC0wLjM4Yy0wLjA5LTAuMTItMC4yMS0wLjIzLTAuMzctMC4zMSAgICAgICBjLTAuMTYtMC4wOC0wLjM3LTAuMTItMC42My0wLjEyTDEuMDIsNTEuNDd6Ii8+JiN4YTsJCQkJPC9nPiYjeGE7CQkJCTxnIGlkPSJzaGFwZTQzMzctMTgiIHRyYW5zZm9ybT0idHJhbnNsYXRlKDEwLjM4OTcpIj4mI3hhOwkJCQkJPHRpdGxlIGlkPSJ0aXRsZTQ4NzA0Ij5TaGVldC40MzM3PC90aXRsZT4mI3hhOwkJCQkJPHBhdGggaWQ9InBhdGg0ODcwNiIgaW5rc2NhcGU6Y29ubmVjdG9yLWN1cnZhdHVyZT0iMCIgc3R5bGU9ImZpbGw6I0ZGRkZGRjsiIGQ9Ik00LjY3LDUzLjd2Mi40NSAgICAgICBjLTAuMTMsMC4xNy0wLjI3LDAuMy0wLjQ0LDAuNDFjLTAuMTYsMC4xLTAuMzMsMC4xOS0wLjUsMC4yNmMtMC4xOCwwLjA3LTAuMzcsMC4xMi0wLjU2LDAuMTVDMi45OCw1NywyLjc5LDU3LjAxLDIuNjEsNTcuMDEgICAgICAgYy0wLjM4LDAtMC43Mi0wLjA3LTEuMDMtMC4yMWMtMC4zMi0wLjEzLTAuNTktMC4zNC0wLjgzLTAuNjFjLTAuMjMtMC4yNy0wLjQyLTAuNi0wLjU1LTEuMDFTMCw1NC4zMSwwLDUzLjc3ICAgICAgIGMwLTAuNTMsMC4wNy0xLDAuMi0xLjRzMC4zMi0wLjc0LDAuNTUtMS4wMWMwLjI0LTAuMjcsMC41MS0wLjQ3LDAuODMtMC42MXMwLjY2LTAuMjEsMS4wMy0wLjIxYzAuMzQsMCwwLjY1LDAuMDYsMC45NSwwLjE3ICAgICAgIGMwLjI5LDAuMTEsMC41NiwwLjI5LDAuNzksMC41MWwtMC43MSwwLjY0Yy0wLjEzLTAuMTctMC4yOS0wLjI5LTAuNDYtMC4zNkMzLDUxLjQzLDIuODIsNTEuMzksMi42Myw1MS4zOSAgICAgICBjLTAuMjEsMC0wLjQxLDAuMDQtMC42LDAuMTJjLTAuMTksMC4wOC0wLjM2LDAuMjEtMC41MSwwLjQxYy0wLjE1LDAuMTktMC4yNiwwLjQzLTAuMzUsMC43NGMtMC4wOCwwLjMtMC4xMywwLjY3LTAuMTMsMS4xMSAgICAgICBjMCwwLjQzLDAuMDUsMC44LDAuMTMsMS4xMmMwLjA4LDAuMzEsMC4xOSwwLjU3LDAuMzQsMC43N2MwLjE0LDAuMiwwLjMxLDAuMzUsMC40OSwwLjQ1YzAuMTgsMC4wOSwwLjM4LDAuMTQsMC41OCwwLjE0ICAgICAgIGMwLjA2LDAsMC4xNSwwLDAuMjUtMC4wMWMwLjExLTAuMDEsMC4yMS0wLjAyLDAuMzItMC4wNGMwLjEtMC4wMiwwLjItMC4wNSwwLjMtMC4wOGMwLjA5LTAuMDQsMC4xNy0wLjA5LDAuMjEtMC4xNXYtMS41NkgyLjYgICAgICAgVjUzLjdINC42N3oiLz4mI3hhOwkJCQk8L2c+JiN4YTsJCQk8L2c+JiN4YTsJCTwvZz4mI3hhOwk8L2c+JiN4YTs8L2c+JiN4YTs8L3N2Zz4=;" parent="1" vertex="1">
          <mxGeometry x="300" y="150" width="27" height="35" as="geometry" />
        </mxCell>
        <mxCell id="7SyEpNHibravQh2fk7pt-11" value="" style="shape=image;verticalLabelPosition=bottom;labelBackgroundColor=#ffffff;verticalAlign=top;aspect=fixed;imageAspect=0;image=data:image/svg+xml,PHN2ZyB4bWxuczpjYz0iaHR0cDovL2NyZWF0aXZlY29tbW9ucy5vcmcvbnMjIiB4bWxuczpkYz0iaHR0cDovL3B1cmwub3JnL2RjL2VsZW1lbnRzLzEuMS8iIHhtbG5zOmlua3NjYXBlPSJodHRwOi8vd3d3Lmlua3NjYXBlLm9yZy9uYW1lc3BhY2VzL2lua3NjYXBlIiB4bWxuczpyZGY9Imh0dHA6Ly93d3cudzMub3JnLzE5OTkvMDIvMjItcmRmLXN5bnRheC1ucyMiIHhtbG5zOnNvZGlwb2RpPSJodHRwOi8vc29kaXBvZGkuc291cmNlZm9yZ2UubmV0L0RURC9zb2RpcG9kaS0wLmR0ZCIgeG1sbnM6c3ZnPSJodHRwOi8vd3d3LnczLm9yZy8yMDAwL3N2ZyIgeG1sbnM9Imh0dHA6Ly93d3cudzMub3JnLzIwMDAvc3ZnIiB4bWxuczp4bGluaz0iaHR0cDovL3d3dy53My5vcmcvMTk5OS94bGluayIgdmVyc2lvbj0iMS4xIiBpZD0ic3ZnNTA2MDUiIGlua3NjYXBlOnZlcnNpb249IjAuOTIuMyAoMjQwNTU0NiwgMjAxOC0wMy0xMSkiIHNvZGlwb2RpOmRvY25hbWU9InBuZy5zdmciIHg9IjBweCIgeT0iMHB4IiB2aWV3Qm94PSIwIDAgMjYuODUgMzUuMzIiIHN0eWxlPSJlbmFibGUtYmFja2dyb3VuZDpuZXcgMCAwIDI2Ljg1IDM1LjMyOyIgeG1sOnNwYWNlPSJwcmVzZXJ2ZSI+JiN4YTs8c29kaXBvZGk6bmFtZWR2aWV3IGJvcmRlcmNvbG9yPSIjNjY2NjY2IiBib3JkZXJvcGFjaXR5PSIxIiBmaXQtbWFyZ2luLWJvdHRvbT0iMCIgZml0LW1hcmdpbi1sZWZ0PSIwIiBmaXQtbWFyZ2luLXJpZ2h0PSIwIiBmaXQtbWFyZ2luLXRvcD0iMCIgZ3JpZHRvbGVyYW5jZT0iMTAiIGd1aWRldG9sZXJhbmNlPSIxMCIgaWQ9Im5hbWVkdmlldzUwNjA3IiBpbmtzY2FwZTpjdXJyZW50LWxheWVyPSJzdmc1MDYwNSIgaW5rc2NhcGU6Y3g9IjE3Ljg5Nzg4NCIgaW5rc2NhcGU6Y3k9IjIzLjU0OTc1NiIgaW5rc2NhcGU6cGFnZW9wYWNpdHk9IjAiIGlua3NjYXBlOnBhZ2VzaGFkb3c9IjIiIGlua3NjYXBlOndpbmRvdy1oZWlnaHQ9IjEwMTciIGlua3NjYXBlOndpbmRvdy1tYXhpbWl6ZWQ9IjEiIGlua3NjYXBlOndpbmRvdy13aWR0aD0iMTkyMCIgaW5rc2NhcGU6d2luZG93LXg9Ii04IiBpbmtzY2FwZTp3aW5kb3cteT0iLTgiIGlua3NjYXBlOnpvb209IjExLjM3MjMzNiIgb2JqZWN0dG9sZXJhbmNlPSIxMCIgcGFnZWNvbG9yPSIjZmZmZmZmIiBzaG93Z3JpZD0iZmFsc2UiPiYjeGE7CTwvc29kaXBvZGk6bmFtZWR2aWV3PiYjeGE7PGcgaWQ9Imc1MDYwMyIgdHJhbnNmb3JtPSJ0cmFuc2xhdGUoLTEwLjkyODYsLTEwLjkzMTQpIj4mI3hhOwk8dGl0bGUgaWQ9InRpdGxlNTA1NTIiPlBhZ2UtMTwvdGl0bGU+JiN4YTsJPGcgaWQ9Imdyb3VwNDM0OS0xIiB0cmFuc2Zvcm09InRyYW5zbGF0ZSgxMC45Mjg2LC0xMC45Mjg2KSI+JiN4YTsJCTx0aXRsZSBpZD0idGl0bGU1MDU1NCI+UE5HPC90aXRsZT4mI3hhOwkJPGcgaWQ9Imdyb3VwNDM1MC0yIj4mI3hhOwkJCTx0aXRsZSBpZD0idGl0bGU1MDU1NiI+U2hlZXQuNDM1MDwvdGl0bGU+JiN4YTsJCQk8ZyBpZD0ic2hhcGU0MzUxLTMiPiYjeGE7CQkJCTx0aXRsZSBpZD0idGl0bGU1MDU1OCI+U2hlZXQuNDM1MTwvdGl0bGU+JiN4YTsJCQkJPHBhdGggaWQ9InBhdGg1MDU2MCIgaW5rc2NhcGU6Y29ubmVjdG9yLWN1cnZhdHVyZT0iMCIgc3R5bGU9ImZpbGw6I0U5RTlFMDsiIGQ9Ik0xOS4wMywyMS44NkgwLjkxYy0wLjUsMC0wLjkxLDAuNDEtMC45MSwxLjIxICAgICAgdjMzLjQ4YzAsMC4yMiwwLjQxLDAuNjMsMC45MSwwLjYzaDI1LjAyYzAuNTEsMCwwLjkyLTAuNDEsMC45Mi0wLjYzVjMwLjA0YzAtMC40NC0wLjA2LTAuNTgtMC4xNi0wLjY4bC03LjI3LTcuMzQgICAgICBDMTkuMzIsMjEuOTIsMTkuMTgsMjEuODYsMTkuMDMsMjEuODZ6Ii8+JiN4YTsJCQk8L2c+JiN4YTsJCQk8ZyBpZD0ic2hhcGU0MzUyLTUiPiYjeGE7CQkJCTx0aXRsZSBpZD0idGl0bGU1MDU2MyI+U2hlZXQuNDM1MjwvdGl0bGU+JiN4YTsJCQkJPHBhdGggaWQ9InBhdGg1MDU2NSIgaW5rc2NhcGU6Y29ubmVjdG9yLWN1cnZhdHVyZT0iMCIgc3R5bGU9ImZpbGw6IzY1OUMzNTsiIGQ9Ik0yNS45Myw1Ny4xOEgwLjkxYy0wLjUsMC0wLjkxLTAuNDEtMC45MS0wLjkyICAgICAgdi05LjhoMjYuODV2OS44QzI2Ljg1LDU2Ljc3LDI2LjQ0LDU3LjE4LDI1LjkzLDU3LjE4eiIvPiYjeGE7CQkJPC9nPiYjeGE7CQkJPGcgaWQ9InNoYXBlNDM1My03IiB0cmFuc2Zvcm09InRyYW5zbGF0ZSgxOS4zNTQ3LC0yNy43NTIzKSI+JiN4YTsJCQkJPHRpdGxlIGlkPSJ0aXRsZTUwNTY4Ij5TaGVldC40MzUzPC90aXRsZT4mI3hhOwkJCQk8cGF0aCBpZD0icGF0aDUwNTcwIiBpbmtzY2FwZTpjb25uZWN0b3ItY3VydmF0dXJlPSIwIiBzdHlsZT0iZmlsbDojRDlEN0NBOyIgZD0iTTAsNDkuN3Y3LjQ4aDcuNEwwLDQ5Ljd6Ii8+JiN4YTsJCQk8L2c+JiN4YTsJCQk8ZyBpZD0iZ3JvdXA0MzU0LTkiIHRyYW5zZm9ybT0idHJhbnNsYXRlKDUuNzcxNDYsLTEuODQ5MzEpIj4mI3hhOwkJCQk8dGl0bGUgaWQ9InRpdGxlNTA1NzMiPlNoZWV0LjQzNTQ8L3RpdGxlPiYjeGE7CQkJCTxnIGlkPSJzaGFwZTQzNTUtMTAiIHRyYW5zZm9ybT0idHJhbnNsYXRlKDAsLTAuMDQyODg5OSkiPiYjeGE7CQkJCQk8dGl0bGUgaWQ9InRpdGxlNTA1NzUiPlNoZWV0LjQzNTU8L3RpdGxlPiYjeGE7CQkJCQk8cGF0aCBpZD0icGF0aDUwNTc3IiBpbmtzY2FwZTpjb25uZWN0b3ItY3VydmF0dXJlPSIwIiBzdHlsZT0iZmlsbDojRkZGRkZGOyIgZD0iTTEuMDIsNTcuMThIMHYtNi4zNmgxLjgxICAgICAgIGMwLjI3LDAsMC41MywwLjA1LDAuNzksMC4xM2MwLjI2LDAuMDksMC41LDAuMjIsMC43MSwwLjM5czAuMzcsMC4zOCwwLjUsMC42M0MzLjk0LDUyLjIxLDQsNTIuNDgsNCw1Mi43OSAgICAgICBjMCwwLjMyLTAuMDUsMC42MS0wLjE2LDAuODdjLTAuMTEsMC4yNy0wLjI2LDAuNDktMC40NSwwLjY2Yy0wLjIsMC4xOC0wLjQzLDAuMzItMC43LDAuNDJzLTAuNTgsMC4xNC0wLjkxLDAuMTRIMS4wMlY1Ny4xOHogICAgICAgIE0xLjAyLDUxLjYxdjIuNTJoMC45NGMwLjEzLDAsMC4yNS0wLjAzLDAuMzgtMC4wN2MwLjEyLTAuMDQsMC4yMy0wLjExLDAuMzMtMC4yMXMwLjE5LTAuMjMsMC4yNS0wLjQxICAgICAgIGMwLjA2LTAuMTgsMC4wOS0wLjM5LDAuMDktMC42NWMwLTAuMS0wLjAxLTAuMjItMC4wNC0wLjM2Yy0wLjAzLTAuMTMtMC4wOS0wLjI2LTAuMTctMC4zOWMtMC4wOS0wLjEyLTAuMjItMC4yMi0wLjM4LTAuMzEgICAgICAgYy0wLjE1LTAuMDgtMC4zNy0wLjEyLTAuNjMtMC4xMkgxLjAyeiIvPiYjeGE7CQkJCTwvZz4mI3hhOwkJCQk8ZyBpZD0ic2hhcGU0MzU2LTEyIiB0cmFuc2Zvcm09InRyYW5zbGF0ZSg1LjE3MjcxLC0wLjA0Mjg4OTkpIj4mI3hhOwkJCQkJPHRpdGxlIGlkPSJ0aXRsZTUwNTgwIj5TaGVldC40MzU2PC90aXRsZT4mI3hhOwkJCQkJPHBhdGggaWQ9InBhdGg1MDU4MiIgaW5rc2NhcGU6Y29ubmVjdG9yLWN1cnZhdHVyZT0iMCIgc3R5bGU9ImZpbGw6I0ZGRkZGRjsiIGQ9Ik00LjU1LDUwLjgydjYuMzZIMy41MUwxLjA0LDUyLjh2NC4zOEgwdi02LjM2ICAgICAgIGgxLjA0bDIuNDcsNC4zOHYtNC4zOEg0LjU1eiIvPiYjeGE7CQkJCTwvZz4mI3hhOwkJCQk8ZyBpZD0ic2hhcGU0MzU3LTE0IiB0cmFuc2Zvcm09InRyYW5zbGF0ZSgxMS4xNzM5KSI+JiN4YTsJCQkJCTx0aXRsZSBpZD0idGl0bGU1MDU4NSI+U2hlZXQuNDM1NzwvdGl0bGU+JiN4YTsJCQkJCTxwYXRoIGlkPSJwYXRoNTA1ODciIGlua3NjYXBlOmNvbm5lY3Rvci1jdXJ2YXR1cmU9IjAiIHN0eWxlPSJmaWxsOiNGRkZGRkY7IiBkPSJNNC42OSw1My44NnYyLjQ2ICAgICAgIGMtMC4xMywwLjE2LTAuMjcsMC4zLTAuNDQsMC40MWMtMC4xNiwwLjEtMC4zMywwLjE5LTAuNTEsMC4yNmMtMC4xOCwwLjA3LTAuMzYsMC4xMi0wLjU1LDAuMTVDMyw1Ny4xNiwyLjgxLDU3LjE4LDIuNjIsNTcuMTggICAgICAgYy0wLjM4LDAtMC43Mi0wLjA3LTEuMDQtMC4yMWMtMC4zMS0wLjE0LTAuNTktMC4zNC0wLjgyLTAuNjFjLTAuMjQtMC4yNy0wLjQzLTAuNjEtMC41Ni0xLjAyUzAsNTQuNDYsMCw1My45MyAgICAgICBjMC0wLjU0LDAuMDctMS4wMSwwLjItMS40MWMwLjEzLTAuNDEsMC4zMi0wLjc1LDAuNTYtMS4wMmMwLjIzLTAuMjcsMC41MS0wLjQ3LDAuODMtMC42MXMwLjY2LTAuMjEsMS4wMy0wLjIxICAgICAgIGMwLjM0LDAsMC42NiwwLjA1LDAuOTYsMC4xN2MwLjI5LDAuMTEsMC41NiwwLjI5LDAuNzksMC41MkwzLjY2LDUyYy0wLjE0LTAuMTYtMC4yOS0wLjI4LTAuNDctMC4zNiAgICAgICBjLTAuMTgtMC4wNy0wLjM2LTAuMTEtMC41NC0wLjExYy0wLjIyLDAtMC40MiwwLjA0LTAuNjEsMC4xMmMtMC4xOSwwLjA4LTAuMzYsMC4yMi0wLjUxLDAuNDFzLTAuMjcsMC40NC0wLjM1LDAuNzUgICAgICAgYy0wLjA5LDAuMy0wLjEzLDAuNjctMC4xNCwxLjEyYzAuMDEsMC40MywwLjA1LDAuOCwwLjEzLDEuMTJjMC4wOSwwLjMxLDAuMiwwLjU3LDAuMzQsMC43N2MwLjE1LDAuMiwwLjMxLDAuMzUsMC41LDAuNDUgICAgICAgYzAuMTgsMC4xLDAuMzgsMC4xNSwwLjU4LDAuMTVjMC4wNywwLDAuMTUtMC4wMSwwLjI2LTAuMDJjMC4xLDAsMC4yMS0wLjAyLDAuMzEtMC4wNGMwLjExLTAuMDIsMC4yMS0wLjA1LDAuMzEtMC4wOCAgICAgICBjMC4wOS0wLjAzLDAuMTYtMC4wOCwwLjIxLTAuMTV2LTEuNTdIMi42MXYtMC43SDQuNjl6Ii8+JiN4YTsJCQkJPC9nPiYjeGE7CQkJPC9nPiYjeGE7CQkJPGcgaWQ9InNoYXBlNDM1OC0xNiIgdHJhbnNmb3JtPSJ0cmFuc2xhdGUoNC45MDg2MSwtMjMuMzM3MSkiPiYjeGE7CQkJCTx0aXRsZSBpZD0idGl0bGU1MDU5MSI+U2hlZXQuNDM1ODwvdGl0bGU+JiN4YTsJCQkJPGVsbGlwc2UgaWQ9ImVsbGlwc2U1MDU5MyIgc3R5bGU9ImZpbGw6I0YzRDU1QjsiIGN4PSIyLjg1IiBjeT0iNTQuMyIgcng9IjIuODUiIHJ5PSIyLjg4Ii8+JiN4YTsJCQk8L2c+JiN4YTsJCQk8ZyBpZD0ic2hhcGU0MzU5LTE4IiB0cmFuc2Zvcm09InRyYW5zbGF0ZSgwLC0xMC43MjI1KSI+JiN4YTsJCQkJPHRpdGxlIGlkPSJ0aXRsZTUwNTk2Ij5TaGVldC40MzU5PC90aXRsZT4mI3hhOwkJCQk8cGF0aCBpZD0icGF0aDUwNTk4IiBpbmtzY2FwZTpjb25uZWN0b3ItY3VydmF0dXJlPSIwIiBzdHlsZT0iZmlsbDojODhDMDU3OyIgZD0iTTAsNTcuMThoNi44N2gxOS45OHYtNi45NGwtNi4yNS01Ljk5ICAgICAgbC02LjU1LDcuMjVsLTMuNDMtMy40NkwwLDU3LjE4eiIvPiYjeGE7CQkJPC9nPiYjeGE7CQk8L2c+JiN4YTsJPC9nPiYjeGE7PC9nPiYjeGE7PC9zdmc+;" parent="1" vertex="1">
          <mxGeometry x="333" y="150" width="27" height="35" as="geometry" />
        </mxCell>
        <mxCell id="7SyEpNHibravQh2fk7pt-12" value="360-video" style="html=1;strokeColor=none;fillColor=#0079D6;labelPosition=center;verticalLabelPosition=middle;verticalAlign=top;align=center;fontSize=12;outlineConnect=0;spacingTop=-6;fontColor=#FFFFFF;shape=mxgraph.sitemap.video;" parent="1" vertex="1">
          <mxGeometry x="370" y="150" width="60" height="35" as="geometry" />
        </mxCell>
        <mxCell id="7SyEpNHibravQh2fk7pt-15" value="" style="endArrow=classic;html=1;" parent="1" edge="1">
          <mxGeometry width="50" height="50" relative="1" as="geometry">
            <mxPoint x="470" y="240" as="sourcePoint" />
            <mxPoint x="290" y="240" as="targetPoint" />
          </mxGeometry>
        </mxCell>
        <mxCell id="7SyEpNHibravQh2fk7pt-16" value="" style="endArrow=classic;html=1;strokeColor=#0A0A0A;" parent="1" edge="1">
          <mxGeometry width="50" height="50" relative="1" as="geometry">
            <mxPoint x="240" y="260" as="sourcePoint" />
            <mxPoint x="240" y="400" as="targetPoint" />
            <Array as="points">
              <mxPoint x="240" y="340" />
            </Array>
          </mxGeometry>
        </mxCell>
        <mxCell id="7SyEpNHibravQh2fk7pt-17" value="" style="shape=image;verticalLabelPosition=bottom;labelBackgroundColor=#ffffff;verticalAlign=top;aspect=fixed;imageAspect=0;image=data:image/svg+xml,PHN2ZyB4bWxuczpjYz0iaHR0cDovL2NyZWF0aXZlY29tbW9ucy5vcmcvbnMjIiB4bWxuczpkYz0iaHR0cDovL3B1cmwub3JnL2RjL2VsZW1lbnRzLzEuMS8iIHhtbG5zOmlua3NjYXBlPSJodHRwOi8vd3d3Lmlua3NjYXBlLm9yZy9uYW1lc3BhY2VzL2lua3NjYXBlIiB4bWxuczpyZGY9Imh0dHA6Ly93d3cudzMub3JnLzE5OTkvMDIvMjItcmRmLXN5bnRheC1ucyMiIHhtbG5zOnNvZGlwb2RpPSJodHRwOi8vc29kaXBvZGkuc291cmNlZm9yZ2UubmV0L0RURC9zb2RpcG9kaS0wLmR0ZCIgeG1sbnM6c3ZnPSJodHRwOi8vd3d3LnczLm9yZy8yMDAwL3N2ZyIgeG1sbnM9Imh0dHA6Ly93d3cudzMub3JnLzIwMDAvc3ZnIiB4bWxuczp4bGluaz0iaHR0cDovL3d3dy53My5vcmcvMTk5OS94bGluayIgdmVyc2lvbj0iMS4xIiBpZD0ic3ZnNTYzODQiIGlua3NjYXBlOnZlcnNpb249IjAuOTIuMyAoMjQwNTU0NiwgMjAxOC0wMy0xMSkiIHNvZGlwb2RpOmRvY25hbWU9InppcC5zdmciIHg9IjBweCIgeT0iMHB4IiB2aWV3Qm94PSIwIDAgMjYuODUgMzUuMzIiIHN0eWxlPSJlbmFibGUtYmFja2dyb3VuZDpuZXcgMCAwIDI2Ljg1IDM1LjMyOyIgeG1sOnNwYWNlPSJwcmVzZXJ2ZSI+JiN4YTs8c29kaXBvZGk6bmFtZWR2aWV3IGJvcmRlcmNvbG9yPSIjNjY2NjY2IiBib3JkZXJvcGFjaXR5PSIxIiBmaXQtbWFyZ2luLWJvdHRvbT0iMCIgZml0LW1hcmdpbi1sZWZ0PSIwIiBmaXQtbWFyZ2luLXJpZ2h0PSIwIiBmaXQtbWFyZ2luLXRvcD0iMCIgZ3JpZHRvbGVyYW5jZT0iMTAiIGd1aWRldG9sZXJhbmNlPSIxMCIgaWQ9Im5hbWVkdmlldzU2Mzg2IiBpbmtzY2FwZTpjdXJyZW50LWxheWVyPSJzdmc1NjM4NCIgaW5rc2NhcGU6Y3g9IjE3Ljg5Nzg4NCIgaW5rc2NhcGU6Y3k9IjIzLjU0OTc1NiIgaW5rc2NhcGU6cGFnZW9wYWNpdHk9IjAiIGlua3NjYXBlOnBhZ2VzaGFkb3c9IjIiIGlua3NjYXBlOndpbmRvdy1oZWlnaHQ9IjEwMTciIGlua3NjYXBlOndpbmRvdy1tYXhpbWl6ZWQ9IjEiIGlua3NjYXBlOndpbmRvdy13aWR0aD0iMTkyMCIgaW5rc2NhcGU6d2luZG93LXg9Ii04IiBpbmtzY2FwZTp3aW5kb3cteT0iLTgiIGlua3NjYXBlOnpvb209IjExLjM3MjMzNiIgb2JqZWN0dG9sZXJhbmNlPSIxMCIgcGFnZWNvbG9yPSIjZmZmZmZmIiBzaG93Z3JpZD0iZmFsc2UiPiYjeGE7CTwvc29kaXBvZGk6bmFtZWR2aWV3PiYjeGE7PGcgaWQ9Imc1NjM4MiIgdHJhbnNmb3JtPSJ0cmFuc2xhdGUoLTEwLjkyODYsLTEwLjkzMTQpIj4mI3hhOwk8dGl0bGUgaWQ9InRpdGxlNTYzMjgiPlBhZ2UtMTwvdGl0bGU+JiN4YTsJPGcgaWQ9Imdyb3VwNDM3MC0xIiB0cmFuc2Zvcm09InRyYW5zbGF0ZSgxMC45Mjg2LC0xMC45Mjg2KSI+JiN4YTsJCTx0aXRsZSBpZD0idGl0bGU1NjMzMCI+WklQPC90aXRsZT4mI3hhOwkJPGcgaWQ9Imdyb3VwNDM3MS0yIj4mI3hhOwkJCTx0aXRsZSBpZD0idGl0bGU1NjMzMiI+U2hlZXQuNDM3MTwvdGl0bGU+JiN4YTsJCQk8ZyBpZD0ic2hhcGU0MzcyLTMiPiYjeGE7CQkJCTx0aXRsZSBpZD0idGl0bGU1NjMzNCI+U2hlZXQuNDM3MjwvdGl0bGU+JiN4YTsJCQkJPHBhdGggaWQ9InBhdGg1NjMzNiIgaW5rc2NhcGU6Y29ubmVjdG9yLWN1cnZhdHVyZT0iMCIgc3R5bGU9ImZpbGw6I0U5RTlFMDsiIGQ9Ik0xOS4wMywyMS44NkgwLjkxYy0wLjUsMC0wLjkxLDAuNDEtMC45MSwxLjIxICAgICAgdjMzLjQ4YzAsMC4yMiwwLjQxLDAuNjMsMC45MSwwLjYzaDI1LjAyYzAuNTEsMCwwLjkyLTAuNDEsMC45Mi0wLjYzVjMwLjA0YzAtMC40NC0wLjA2LTAuNTgtMC4xNi0wLjY4bC03LjI3LTcuMzQgICAgICBDMTkuMzIsMjEuOTIsMTkuMTgsMjEuODYsMTkuMDMsMjEuODZ6Ii8+JiN4YTsJCQk8L2c+JiN4YTsJCQk8ZyBpZD0ic2hhcGU0MzczLTUiIHRyYW5zZm9ybT0idHJhbnNsYXRlKDE5LjM1NDcsLTI3Ljc1MjMpIj4mI3hhOwkJCQk8dGl0bGUgaWQ9InRpdGxlNTYzMzkiPlNoZWV0LjQzNzM8L3RpdGxlPiYjeGE7CQkJCTxwYXRoIGlkPSJwYXRoNTYzNDEiIGlua3NjYXBlOmNvbm5lY3Rvci1jdXJ2YXR1cmU9IjAiIHN0eWxlPSJmaWxsOiNEOUQ3Q0E7IiBkPSJNMCw0OS43djcuNDhoNy40TDAsNDkuN3oiLz4mI3hhOwkJCTwvZz4mI3hhOwkJCTxnIGlkPSJzaGFwZTQzNzQtNyI+JiN4YTsJCQkJPHRpdGxlIGlkPSJ0aXRsZTU2MzQ0Ij5TaGVldC40Mzc0PC90aXRsZT4mI3hhOwkJCQk8cGF0aCBpZD0icGF0aDU2MzQ2IiBpbmtzY2FwZTpjb25uZWN0b3ItY3VydmF0dXJlPSIwIiBzdHlsZT0iZmlsbDojNTU2MDgwOyIgZD0iTTI1LjkzLDU3LjE4SDAuOTFjLTAuNSwwLTAuOTEtMC40MS0wLjkxLTAuOTIgICAgICB2LTkuOGgyNi44NXY5LjhDMjYuODUsNTYuNzcsMjYuNDQsNTcuMTgsMjUuOTMsNTcuMTh6Ii8+JiN4YTsJCQk8L2c+JiN4YTsJCQk8ZyBpZD0iZ3JvdXA0Mzc1LTkiIHRyYW5zZm9ybT0idHJhbnNsYXRlKDcuNTMzOTksLTEuODkyMikiPiYjeGE7CQkJCTx0aXRsZSBpZD0idGl0bGU1NjM0OSI+U2hlZXQuNDM3NTwvdGl0bGU+JiN4YTsJCQkJPGcgaWQ9InNoYXBlNDM3Ni0xMCI+JiN4YTsJCQkJCTx0aXRsZSBpZD0idGl0bGU1NjM1MSI+U2hlZXQuNDM3NjwvdGl0bGU+JiN4YTsJCQkJCTxwYXRoIGlkPSJwYXRoNTYzNTMiIGlua3NjYXBlOmNvbm5lY3Rvci1jdXJ2YXR1cmU9IjAiIHN0eWxlPSJmaWxsOiNGRkZGRkY7IiBkPSJNNC4xOCw1MC44MnYwLjg0TDEuMTksNTYuMmwtMC4xNywwLjE0aDMuMTYgICAgICAgdjAuODRIMHYtMC44NGwzLTQuNTRsMC4xOC0wLjE0SDB2LTAuODRINC4xOHoiLz4mI3hhOwkJCQk8L2c+JiN4YTsJCQkJPGcgaWQ9InNoYXBlNDM3Ny0xMiIgdHJhbnNmb3JtPSJ0cmFuc2xhdGUoNS42NDE1OSkiPiYjeGE7CQkJCQk8dGl0bGUgaWQ9InRpdGxlNTYzNTYiPlNoZWV0LjQzNzc8L3RpdGxlPiYjeGE7CQkJCQk8cGF0aCBpZD0icGF0aDU2MzU4IiBpbmtzY2FwZTpjb25uZWN0b3ItY3VydmF0dXJlPSIwIiBzdHlsZT0iZmlsbDojRkZGRkZGOyIgZD0iTTEuMDQsNTcuMThIMHYtNi4zNmgxLjA0VjU3LjE4eiIvPiYjeGE7CQkJCTwvZz4mI3hhOwkJCQk8ZyBpZD0ic2hhcGU0Mzc4LTE0IiB0cmFuc2Zvcm09InRyYW5zbGF0ZSg4LjI0NTEyKSI+JiN4YTsJCQkJCTx0aXRsZSBpZD0idGl0bGU1NjM2MSI+U2hlZXQuNDM3ODwvdGl0bGU+JiN4YTsJCQkJCTxwYXRoIGlkPSJwYXRoNTYzNjMiIGlua3NjYXBlOmNvbm5lY3Rvci1jdXJ2YXR1cmU9IjAiIHN0eWxlPSJmaWxsOiNGRkZGRkY7IiBkPSJNMS4wMiw1Ny4xOEgwdi02LjM2aDEuODEgICAgICAgYzAuMjcsMCwwLjUzLDAuMDUsMC43OSwwLjEzYzAuMjYsMC4wOSwwLjUsMC4yMiwwLjcxLDAuMzlzMC4zNywwLjM4LDAuNSwwLjYzQzMuOTQsNTIuMjEsNCw1Mi40OCw0LDUyLjc5ICAgICAgIGMwLDAuMzItMC4wNSwwLjYxLTAuMTYsMC44N2MtMC4xMSwwLjI3LTAuMjYsMC40OS0wLjQ1LDAuNjZjLTAuMiwwLjE4LTAuNDMsMC4zMi0wLjcsMC40MnMtMC41OCwwLjE0LTAuOTEsMC4xNEgxLjAyVjU3LjE4eiAgICAgICAgTTEuMDIsNTEuNjF2Mi41MmgwLjk0YzAuMTMsMCwwLjI1LTAuMDMsMC4zOC0wLjA3YzAuMTItMC4wNCwwLjIzLTAuMTEsMC4zMy0wLjIxczAuMTktMC4yMywwLjI1LTAuNDEgICAgICAgYzAuMDYtMC4xOCwwLjA5LTAuMzksMC4wOS0wLjY1YzAtMC4xLTAuMDEtMC4yMi0wLjA0LTAuMzZjLTAuMDMtMC4xMy0wLjA5LTAuMjYtMC4xNy0wLjM5Yy0wLjA5LTAuMTItMC4yMi0wLjIyLTAuMzgtMC4zMSAgICAgICBjLTAuMTUtMC4wOC0wLjM3LTAuMTItMC42My0wLjEySDEuMDJ6Ii8+JiN4YTsJCQkJPC9nPiYjeGE7CQkJPC9nPiYjeGE7CQkJPGcgaWQ9Imdyb3VwNDM3OS0xNiIgdHJhbnNmb3JtPSJ0cmFuc2xhdGUoOS45ODk1NCwtMTMuODc2MSkiPiYjeGE7CQkJCTx0aXRsZSBpZD0idGl0bGU1NjM2NyI+U2hlZXQuNDM3OTwvdGl0bGU+JiN4YTsJCQkJPGcgaWQ9InNoYXBlNDM4MC0xNyI+JiN4YTsJCQkJCTx0aXRsZSBpZD0idGl0bGU1NjM2OSI+U2hlZXQuNDM4MDwvdGl0bGU+JiN4YTsJCQkJCTxwYXRoIGlkPSJwYXRoNTYzNzEiIGlua3NjYXBlOmNvbm5lY3Rvci1jdXJ2YXR1cmU9IjAiIHN0eWxlPSJmaWxsOiNDOEJEQjg7IiBkPSJNMy43NSw1MC44N3YtMS4yNmgxLjI0di0xLjI2SDMuNzV2LTEuMjZoMS4yNCAgICAgICB2LTEuMjZIMy43NXYtMS4yN2gxLjI0VjQzLjNIMy43NXYtMS4yNmgxLjI0di0xLjI2SDMuNzV2LTEuMjZIMi41djEuMjZIMS4yNXYxLjI2SDIuNXYxLjI2SDEuMjV2MS4yNkgyLjV2MS4yN0gxLjI1djEuMjZIMi41ICAgICAgIHYxLjI2SDEuMjV2MS4yNkgyLjV2MS4yNkgwdjMuMTVjMCwxLjc0LDEuNCwzLjE2LDMuMTIsMy4xNnMzLjEyLTEuNDIsMy4xMi0zLjE2di0zLjE1TDMuNzUsNTAuODd6IE00Ljk5LDU0LjAyICAgICAgIGMwLDEuMDUtMC44NCwxLjktMS44NywxLjlzLTEuODctMC44NS0xLjg3LTEuOXYtMS44OWgzLjc0VjU0LjAyeiIvPiYjeGE7CQkJCTwvZz4mI3hhOwkJCQk8ZyBpZD0ic2hhcGU0MzgxLTE5IiB0cmFuc2Zvcm09InRyYW5zbGF0ZSgxLjg3MzA0LC0yLjUyMjkzKSI+JiN4YTsJCQkJCTx0aXRsZSBpZD0idGl0bGU1NjM3NCI+U2hlZXQuNDM4MTwvdGl0bGU+JiN4YTsJCQkJCTxwYXRoIGlkPSJwYXRoNTYzNzYiIGlua3NjYXBlOmNvbm5lY3Rvci1jdXJ2YXR1cmU9IjAiIHN0eWxlPSJmaWxsOiNDOEJEQjg7IiBkPSJNMC42Miw1Ny4xOGgxLjI1YzAuMzUsMCwwLjYzLTAuMjgsMC42My0wLjYzICAgICAgIGMwLTAuMzUtMC4yOC0wLjYzLTAuNjMtMC42M0gwLjYyQzAuMjgsNTUuOTIsMCw1Ni4yLDAsNTYuNTVTMC4yOCw1Ny4xOCwwLjYyLDU3LjE4eiIvPiYjeGE7CQkJCTwvZz4mI3hhOwkJCTwvZz4mI3hhOwkJPC9nPiYjeGE7CTwvZz4mI3hhOzwvZz4mI3hhOzwvc3ZnPg==;" parent="1" vertex="1">
          <mxGeometry x="260" y="320" width="27" height="35" as="geometry" />
        </mxCell>
        <mxCell id="7SyEpNHibravQh2fk7pt-19" value="" style="shape=image;verticalLabelPosition=bottom;labelBackgroundColor=#ffffff;verticalAlign=top;aspect=fixed;imageAspect=0;image=data:image/svg+xml,PHN2ZyB4bWxuczpjYz0iaHR0cDovL2NyZWF0aXZlY29tbW9ucy5vcmcvbnMjIiB4bWxuczpkYz0iaHR0cDovL3B1cmwub3JnL2RjL2VsZW1lbnRzLzEuMS8iIHhtbG5zOmlua3NjYXBlPSJodHRwOi8vd3d3Lmlua3NjYXBlLm9yZy9uYW1lc3BhY2VzL2lua3NjYXBlIiB4bWxuczpyZGY9Imh0dHA6Ly93d3cudzMub3JnLzE5OTkvMDIvMjItcmRmLXN5bnRheC1ucyMiIHhtbG5zOnNvZGlwb2RpPSJodHRwOi8vc29kaXBvZGkuc291cmNlZm9yZ2UubmV0L0RURC9zb2RpcG9kaS0wLmR0ZCIgeG1sbnM6c3ZnPSJodHRwOi8vd3d3LnczLm9yZy8yMDAwL3N2ZyIgeG1sbnM9Imh0dHA6Ly93d3cudzMub3JnLzIwMDAvc3ZnIiB4bWxuczp4bGluaz0iaHR0cDovL3d3dy53My5vcmcvMTk5OS94bGluayIgdmVyc2lvbj0iMS4xIiBpZD0ic3ZnNTYzODQiIGlua3NjYXBlOnZlcnNpb249IjAuOTIuMyAoMjQwNTU0NiwgMjAxOC0wMy0xMSkiIHNvZGlwb2RpOmRvY25hbWU9InppcC5zdmciIHg9IjBweCIgeT0iMHB4IiB2aWV3Qm94PSIwIDAgMjYuODUgMzUuMzIiIHN0eWxlPSJlbmFibGUtYmFja2dyb3VuZDpuZXcgMCAwIDI2Ljg1IDM1LjMyOyIgeG1sOnNwYWNlPSJwcmVzZXJ2ZSI+JiN4YTs8c29kaXBvZGk6bmFtZWR2aWV3IGJvcmRlcmNvbG9yPSIjNjY2NjY2IiBib3JkZXJvcGFjaXR5PSIxIiBmaXQtbWFyZ2luLWJvdHRvbT0iMCIgZml0LW1hcmdpbi1sZWZ0PSIwIiBmaXQtbWFyZ2luLXJpZ2h0PSIwIiBmaXQtbWFyZ2luLXRvcD0iMCIgZ3JpZHRvbGVyYW5jZT0iMTAiIGd1aWRldG9sZXJhbmNlPSIxMCIgaWQ9Im5hbWVkdmlldzU2Mzg2IiBpbmtzY2FwZTpjdXJyZW50LWxheWVyPSJzdmc1NjM4NCIgaW5rc2NhcGU6Y3g9IjE3Ljg5Nzg4NCIgaW5rc2NhcGU6Y3k9IjIzLjU0OTc1NiIgaW5rc2NhcGU6cGFnZW9wYWNpdHk9IjAiIGlua3NjYXBlOnBhZ2VzaGFkb3c9IjIiIGlua3NjYXBlOndpbmRvdy1oZWlnaHQ9IjEwMTciIGlua3NjYXBlOndpbmRvdy1tYXhpbWl6ZWQ9IjEiIGlua3NjYXBlOndpbmRvdy13aWR0aD0iMTkyMCIgaW5rc2NhcGU6d2luZG93LXg9Ii04IiBpbmtzY2FwZTp3aW5kb3cteT0iLTgiIGlua3NjYXBlOnpvb209IjExLjM3MjMzNiIgb2JqZWN0dG9sZXJhbmNlPSIxMCIgcGFnZWNvbG9yPSIjZmZmZmZmIiBzaG93Z3JpZD0iZmFsc2UiPiYjeGE7CTwvc29kaXBvZGk6bmFtZWR2aWV3PiYjeGE7PGcgaWQ9Imc1NjM4MiIgdHJhbnNmb3JtPSJ0cmFuc2xhdGUoLTEwLjkyODYsLTEwLjkzMTQpIj4mI3hhOwk8dGl0bGUgaWQ9InRpdGxlNTYzMjgiPlBhZ2UtMTwvdGl0bGU+JiN4YTsJPGcgaWQ9Imdyb3VwNDM3MC0xIiB0cmFuc2Zvcm09InRyYW5zbGF0ZSgxMC45Mjg2LC0xMC45Mjg2KSI+JiN4YTsJCTx0aXRsZSBpZD0idGl0bGU1NjMzMCI+WklQPC90aXRsZT4mI3hhOwkJPGcgaWQ9Imdyb3VwNDM3MS0yIj4mI3hhOwkJCTx0aXRsZSBpZD0idGl0bGU1NjMzMiI+U2hlZXQuNDM3MTwvdGl0bGU+JiN4YTsJCQk8ZyBpZD0ic2hhcGU0MzcyLTMiPiYjeGE7CQkJCTx0aXRsZSBpZD0idGl0bGU1NjMzNCI+U2hlZXQuNDM3MjwvdGl0bGU+JiN4YTsJCQkJPHBhdGggaWQ9InBhdGg1NjMzNiIgaW5rc2NhcGU6Y29ubmVjdG9yLWN1cnZhdHVyZT0iMCIgc3R5bGU9ImZpbGw6I0U5RTlFMDsiIGQ9Ik0xOS4wMywyMS44NkgwLjkxYy0wLjUsMC0wLjkxLDAuNDEtMC45MSwxLjIxICAgICAgdjMzLjQ4YzAsMC4yMiwwLjQxLDAuNjMsMC45MSwwLjYzaDI1LjAyYzAuNTEsMCwwLjkyLTAuNDEsMC45Mi0wLjYzVjMwLjA0YzAtMC40NC0wLjA2LTAuNTgtMC4xNi0wLjY4bC03LjI3LTcuMzQgICAgICBDMTkuMzIsMjEuOTIsMTkuMTgsMjEuODYsMTkuMDMsMjEuODZ6Ii8+JiN4YTsJCQk8L2c+JiN4YTsJCQk8ZyBpZD0ic2hhcGU0MzczLTUiIHRyYW5zZm9ybT0idHJhbnNsYXRlKDE5LjM1NDcsLTI3Ljc1MjMpIj4mI3hhOwkJCQk8dGl0bGUgaWQ9InRpdGxlNTYzMzkiPlNoZWV0LjQzNzM8L3RpdGxlPiYjeGE7CQkJCTxwYXRoIGlkPSJwYXRoNTYzNDEiIGlua3NjYXBlOmNvbm5lY3Rvci1jdXJ2YXR1cmU9IjAiIHN0eWxlPSJmaWxsOiNEOUQ3Q0E7IiBkPSJNMCw0OS43djcuNDhoNy40TDAsNDkuN3oiLz4mI3hhOwkJCTwvZz4mI3hhOwkJCTxnIGlkPSJzaGFwZTQzNzQtNyI+JiN4YTsJCQkJPHRpdGxlIGlkPSJ0aXRsZTU2MzQ0Ij5TaGVldC40Mzc0PC90aXRsZT4mI3hhOwkJCQk8cGF0aCBpZD0icGF0aDU2MzQ2IiBpbmtzY2FwZTpjb25uZWN0b3ItY3VydmF0dXJlPSIwIiBzdHlsZT0iZmlsbDojNTU2MDgwOyIgZD0iTTI1LjkzLDU3LjE4SDAuOTFjLTAuNSwwLTAuOTEtMC40MS0wLjkxLTAuOTIgICAgICB2LTkuOGgyNi44NXY5LjhDMjYuODUsNTYuNzcsMjYuNDQsNTcuMTgsMjUuOTMsNTcuMTh6Ii8+JiN4YTsJCQk8L2c+JiN4YTsJCQk8ZyBpZD0iZ3JvdXA0Mzc1LTkiIHRyYW5zZm9ybT0idHJhbnNsYXRlKDcuNTMzOTksLTEuODkyMikiPiYjeGE7CQkJCTx0aXRsZSBpZD0idGl0bGU1NjM0OSI+U2hlZXQuNDM3NTwvdGl0bGU+JiN4YTsJCQkJPGcgaWQ9InNoYXBlNDM3Ni0xMCI+JiN4YTsJCQkJCTx0aXRsZSBpZD0idGl0bGU1NjM1MSI+U2hlZXQuNDM3NjwvdGl0bGU+JiN4YTsJCQkJCTxwYXRoIGlkPSJwYXRoNTYzNTMiIGlua3NjYXBlOmNvbm5lY3Rvci1jdXJ2YXR1cmU9IjAiIHN0eWxlPSJmaWxsOiNGRkZGRkY7IiBkPSJNNC4xOCw1MC44MnYwLjg0TDEuMTksNTYuMmwtMC4xNywwLjE0aDMuMTYgICAgICAgdjAuODRIMHYtMC44NGwzLTQuNTRsMC4xOC0wLjE0SDB2LTAuODRINC4xOHoiLz4mI3hhOwkJCQk8L2c+JiN4YTsJCQkJPGcgaWQ9InNoYXBlNDM3Ny0xMiIgdHJhbnNmb3JtPSJ0cmFuc2xhdGUoNS42NDE1OSkiPiYjeGE7CQkJCQk8dGl0bGUgaWQ9InRpdGxlNTYzNTYiPlNoZWV0LjQzNzc8L3RpdGxlPiYjeGE7CQkJCQk8cGF0aCBpZD0icGF0aDU2MzU4IiBpbmtzY2FwZTpjb25uZWN0b3ItY3VydmF0dXJlPSIwIiBzdHlsZT0iZmlsbDojRkZGRkZGOyIgZD0iTTEuMDQsNTcuMThIMHYtNi4zNmgxLjA0VjU3LjE4eiIvPiYjeGE7CQkJCTwvZz4mI3hhOwkJCQk8ZyBpZD0ic2hhcGU0Mzc4LTE0IiB0cmFuc2Zvcm09InRyYW5zbGF0ZSg4LjI0NTEyKSI+JiN4YTsJCQkJCTx0aXRsZSBpZD0idGl0bGU1NjM2MSI+U2hlZXQuNDM3ODwvdGl0bGU+JiN4YTsJCQkJCTxwYXRoIGlkPSJwYXRoNTYzNjMiIGlua3NjYXBlOmNvbm5lY3Rvci1jdXJ2YXR1cmU9IjAiIHN0eWxlPSJmaWxsOiNGRkZGRkY7IiBkPSJNMS4wMiw1Ny4xOEgwdi02LjM2aDEuODEgICAgICAgYzAuMjcsMCwwLjUzLDAuMDUsMC43OSwwLjEzYzAuMjYsMC4wOSwwLjUsMC4yMiwwLjcxLDAuMzlzMC4zNywwLjM4LDAuNSwwLjYzQzMuOTQsNTIuMjEsNCw1Mi40OCw0LDUyLjc5ICAgICAgIGMwLDAuMzItMC4wNSwwLjYxLTAuMTYsMC44N2MtMC4xMSwwLjI3LTAuMjYsMC40OS0wLjQ1LDAuNjZjLTAuMiwwLjE4LTAuNDMsMC4zMi0wLjcsMC40MnMtMC41OCwwLjE0LTAuOTEsMC4xNEgxLjAyVjU3LjE4eiAgICAgICAgTTEuMDIsNTEuNjF2Mi41MmgwLjk0YzAuMTMsMCwwLjI1LTAuMDMsMC4zOC0wLjA3YzAuMTItMC4wNCwwLjIzLTAuMTEsMC4zMy0wLjIxczAuMTktMC4yMywwLjI1LTAuNDEgICAgICAgYzAuMDYtMC4xOCwwLjA5LTAuMzksMC4wOS0wLjY1YzAtMC4xLTAuMDEtMC4yMi0wLjA0LTAuMzZjLTAuMDMtMC4xMy0wLjA5LTAuMjYtMC4xNy0wLjM5Yy0wLjA5LTAuMTItMC4yMi0wLjIyLTAuMzgtMC4zMSAgICAgICBjLTAuMTUtMC4wOC0wLjM3LTAuMTItMC42My0wLjEySDEuMDJ6Ii8+JiN4YTsJCQkJPC9nPiYjeGE7CQkJPC9nPiYjeGE7CQkJPGcgaWQ9Imdyb3VwNDM3OS0xNiIgdHJhbnNmb3JtPSJ0cmFuc2xhdGUoOS45ODk1NCwtMTMuODc2MSkiPiYjeGE7CQkJCTx0aXRsZSBpZD0idGl0bGU1NjM2NyI+U2hlZXQuNDM3OTwvdGl0bGU+JiN4YTsJCQkJPGcgaWQ9InNoYXBlNDM4MC0xNyI+JiN4YTsJCQkJCTx0aXRsZSBpZD0idGl0bGU1NjM2OSI+U2hlZXQuNDM4MDwvdGl0bGU+JiN4YTsJCQkJCTxwYXRoIGlkPSJwYXRoNTYzNzEiIGlua3NjYXBlOmNvbm5lY3Rvci1jdXJ2YXR1cmU9IjAiIHN0eWxlPSJmaWxsOiNDOEJEQjg7IiBkPSJNMy43NSw1MC44N3YtMS4yNmgxLjI0di0xLjI2SDMuNzV2LTEuMjZoMS4yNCAgICAgICB2LTEuMjZIMy43NXYtMS4yN2gxLjI0VjQzLjNIMy43NXYtMS4yNmgxLjI0di0xLjI2SDMuNzV2LTEuMjZIMi41djEuMjZIMS4yNXYxLjI2SDIuNXYxLjI2SDEuMjV2MS4yNkgyLjV2MS4yN0gxLjI1djEuMjZIMi41ICAgICAgIHYxLjI2SDEuMjV2MS4yNkgyLjV2MS4yNkgwdjMuMTVjMCwxLjc0LDEuNCwzLjE2LDMuMTIsMy4xNnMzLjEyLTEuNDIsMy4xMi0zLjE2di0zLjE1TDMuNzUsNTAuODd6IE00Ljk5LDU0LjAyICAgICAgIGMwLDEuMDUtMC44NCwxLjktMS44NywxLjlzLTEuODctMC44NS0xLjg3LTEuOXYtMS44OWgzLjc0VjU0LjAyeiIvPiYjeGE7CQkJCTwvZz4mI3hhOwkJCQk8ZyBpZD0ic2hhcGU0MzgxLTE5IiB0cmFuc2Zvcm09InRyYW5zbGF0ZSgxLjg3MzA0LC0yLjUyMjkzKSI+JiN4YTsJCQkJCTx0aXRsZSBpZD0idGl0bGU1NjM3NCI+U2hlZXQuNDM4MTwvdGl0bGU+JiN4YTsJCQkJCTxwYXRoIGlkPSJwYXRoNTYzNzYiIGlua3NjYXBlOmNvbm5lY3Rvci1jdXJ2YXR1cmU9IjAiIHN0eWxlPSJmaWxsOiNDOEJEQjg7IiBkPSJNMC42Miw1Ny4xOGgxLjI1YzAuMzUsMCwwLjYzLTAuMjgsMC42My0wLjYzICAgICAgIGMwLTAuMzUtMC4yOC0wLjYzLTAuNjMtMC42M0gwLjYyQzAuMjgsNTUuOTIsMCw1Ni4yLDAsNTYuNTVTMC4yOCw1Ny4xOCwwLjYyLDU3LjE4eiIvPiYjeGE7CQkJCTwvZz4mI3hhOwkJCTwvZz4mI3hhOwkJPC9nPiYjeGE7CTwvZz4mI3hhOzwvZz4mI3hhOzwvc3ZnPg==;" parent="1" vertex="1">
          <mxGeometry x="333" y="396" width="27" height="35" as="geometry" />
        </mxCell>
        <mxCell id="7SyEpNHibravQh2fk7pt-21" value="" style="dashed=0;outlineConnect=0;html=1;align=center;labelPosition=center;verticalLabelPosition=bottom;verticalAlign=top;shape=mxgraph.weblogos.json" parent="1" vertex="1">
          <mxGeometry x="724.5" y="114.2" width="70" height="75.8" as="geometry" />
        </mxCell>
        <mxCell id="7SyEpNHibravQh2fk7pt-24" value="" style="aspect=fixed;perimeter=ellipsePerimeter;html=1;align=center;shadow=0;dashed=0;spacingTop=3;image;image=img/lib/active_directory/folder_open.svg;" parent="1" vertex="1">
          <mxGeometry x="730" y="389" width="69" height="75" as="geometry" />
        </mxCell>
        <mxCell id="7SyEpNHibravQh2fk7pt-25" value="" style="image;html=1;image=img/lib/clip_art/general/Full_Folder_128x128.png" parent="1" vertex="1">
          <mxGeometry x="724.5" y="250" width="80" height="80" as="geometry" />
        </mxCell>
        <mxCell id="7SyEpNHibravQh2fk7pt-26" value="" style="endArrow=classic;html=1;strokeColor=#0A0A0A;" parent="1" edge="1">
          <mxGeometry width="50" height="50" relative="1" as="geometry">
            <mxPoint x="650" y="206" as="sourcePoint" />
            <mxPoint x="710" y="160" as="targetPoint" />
          </mxGeometry>
        </mxCell>
        <mxCell id="7SyEpNHibravQh2fk7pt-27" value="" style="endArrow=classic;html=1;strokeColor=#0A0A0A;" parent="1" edge="1">
          <mxGeometry width="50" height="50" relative="1" as="geometry">
            <mxPoint x="650" y="240" as="sourcePoint" />
            <mxPoint x="710" y="280" as="targetPoint" />
          </mxGeometry>
        </mxCell>
        <mxCell id="7SyEpNHibravQh2fk7pt-28" value="" style="endArrow=classic;html=1;strokeColor=#0A0A0A;" parent="1" edge="1">
          <mxGeometry width="50" height="50" relative="1" as="geometry">
            <mxPoint x="660" y="431" as="sourcePoint" />
            <mxPoint x="720" y="431" as="targetPoint" />
          </mxGeometry>
        </mxCell>
        <mxCell id="7SyEpNHibravQh2fk7pt-29" value="Doctor" style="text;html=1;strokeColor=none;fillColor=none;align=center;verticalAlign=middle;whiteSpace=wrap;rounded=0;" parent="1" vertex="1">
          <mxGeometry x="223.5" y="240" width="40" height="20" as="geometry" />
        </mxCell>
        <mxCell id="7SyEpNHibravQh2fk7pt-30" value="Student" style="text;html=1;strokeColor=none;fillColor=none;align=center;verticalAlign=middle;whiteSpace=wrap;rounded=0;" parent="1" vertex="1">
          <mxGeometry x="225.75" y="464" width="40" height="20" as="geometry" />
        </mxCell>
        <mxCell id="7SyEpNHibravQh2fk7pt-31" value="SC360 Editor" style="text;html=1;strokeColor=none;fillColor=none;align=center;verticalAlign=middle;whiteSpace=wrap;rounded=0;" parent="1" vertex="1">
          <mxGeometry x="500" y="267.5" width="120" height="20" as="geometry" />
        </mxCell>
        <mxCell id="7SyEpNHibravQh2fk7pt-32" value="SC360 Player" style="text;html=1;strokeColor=none;fillColor=none;align=center;verticalAlign=middle;whiteSpace=wrap;rounded=0;" parent="1" vertex="1">
          <mxGeometry x="503.21" y="484" width="120" height="20" as="geometry" />
        </mxCell>
        <mxCell id="7SyEpNHibravQh2fk7pt-33" value="Store Data" style="text;html=1;strokeColor=none;fillColor=none;align=center;verticalAlign=middle;whiteSpace=wrap;rounded=0;" parent="1" vertex="1">
          <mxGeometry x="724.5" y="200" width="70.5" height="20" as="geometry" />
        </mxCell>
        <mxCell id="7SyEpNHibravQh2fk7pt-34" value="File System" style="text;html=1;strokeColor=none;fillColor=none;align=center;verticalAlign=middle;whiteSpace=wrap;rounded=0;" parent="1" vertex="1">
          <mxGeometry x="730" y="330" width="80" height="20" as="geometry" />
        </mxCell>
        <mxCell id="7SyEpNHibravQh2fk7pt-35" value="Files" style="text;html=1;strokeColor=none;fillColor=none;align=center;verticalAlign=middle;whiteSpace=wrap;rounded=0;" parent="1" vertex="1">
          <mxGeometry x="744.5" y="470" width="40" height="20" as="geometry" />
        </mxCell>
        <mxCell id="7SyEpNHibravQh2fk7pt-36" value="Learning Pack" style="text;html=1;strokeColor=none;fillColor=none;align=center;verticalAlign=middle;whiteSpace=wrap;rounded=0;" parent="1" vertex="1">
          <mxGeometry x="390" y="267.5" width="80" height="20" as="geometry" />
        </mxCell>
        <mxCell id="7SyEpNHibravQh2fk7pt-38" value="Learning Pack" style="text;html=1;strokeColor=none;fillColor=none;align=center;verticalAlign=middle;whiteSpace=wrap;rounded=0;" parent="1" vertex="1">
          <mxGeometry x="290" y="330" width="80" height="20" as="geometry" />
        </mxCell>
        <mxCell id="7SyEpNHibravQh2fk7pt-39" value="Learning Pack" style="text;html=1;strokeColor=none;fillColor=none;align=center;verticalAlign=middle;whiteSpace=wrap;rounded=0;" parent="1" vertex="1">
          <mxGeometry x="370" y="404" width="80" height="20" as="geometry" />
        </mxCell>
      </root>
    </mxGraphModel>
  </diagram>
</mxfile>
